<?xml version="1.0" standalone="no"?>
<!DOCTYPE svg PUBLIC "-//W3C//DTD SVG 20010904//EN"
 "http://www.w3.org/TR/2001/REC-SVG-20010904/DTD/svg10.dtd">
<svg version="1.0" xmlns="http://www.w3.org/2000/svg"
 width="200.000000pt" height="80.000000pt" viewBox="0 0 200.000000 80.000000"
 preserveAspectRatio="xMidYMid meet">
<metadata>
Created by potrace 1.16, written by Peter Selinger 2001-2019
</metadata>
<g transform="translate(0.000000,80.000000) scale(0.016667,-0.006667)"
fill="#000000" stroke="none">
<path d="M0 11724 c0 -216 3 -275 13 -271 7 2 11 15 9 30 -2 19 1 27 11 27 18
0 29 -24 21 -45 -4 -10 0 -15 12 -16 11 0 55 -3 99 -5 105 -5 175 4 175 22 0
8 7 14 15 14 8 0 15 -4 15 -10 0 -5 10 -14 21 -21 20 -10 21 -9 15 14 -3 15 0
37 9 53 8 16 15 36 15 45 0 9 7 22 15 29 8 7 15 19 15 26 0 18 28 7 34 -14 3
-10 3 3 1 28 -6 53 -23 214 -24 218 -1 1 -6 2 -12 2 -8 0 -10 -14 -6 -41 3
-23 -1 -62 -8 -88 -8 -25 -21 -77 -29 -116 -19 -83 -31 -98 -47 -62 -15 32
-25 34 -34 7 -3 -11 -11 -20 -16 -20 -18 0 -29 45 -61 243 -11 68 -24 86 -32
45 -3 -13 -10 -45 -16 -73 -7 -27 -15 -75 -19 -105 -9 -64 -26 -110 -41 -110
-5 0 -10 10 -10 23 0 40 -15 48 -29 16 -23 -52 -37 -35 -55 64 -9 50 -21 115
-26 142 -14 76 -15 134 -2 147 13 13 12 14 31 -65 6 -26 11 -60 11 -75 0 -33
15 -59 24 -44 6 9 -1 61 -20 153 -7 30 10 46 30 30 7 -6 19 -46 25 -89 7 -42
15 -88 18 -102 6 -25 6 -25 14 5 5 17 14 58 19 93 14 83 27 104 65 100 25 -3
30 -8 38 -43 5 -22 15 -67 23 -100 l14 -60 -6 55 c-12 110 -10 144 7 148 17 3
26 -22 50 -148 l13 -65 7 46 c18 123 30 160 55 171 20 9 31 8 52 -4 24 -14 29
-14 41 -1 7 8 17 11 21 6 12 -13 30 -74 30 -103 0 -14 6 -34 14 -45 12 -16 14
-13 20 34 4 29 11 60 16 69 5 10 11 25 14 35 4 12 14 17 28 15 30 -4 37 -41
42 -201 2 -70 6 -130 10 -134 3 -3 6 64 6 150 0 85 3 162 6 171 10 26 111 22
141 -6 l23 -21 0 34 c-1 53 -16 65 -87 68 -52 2 -63 -1 -72 -17 -6 -11 -18
-23 -27 -26 -14 -5 -15 -4 -5 8 7 8 10 20 6 26 -4 6 -127 10 -366 10 l-359 0
0 -276z"/>
<path d="M910 11986 c0 -8 7 -16 15 -20 9 -3 15 -18 15 -36 0 -34 15 -40 25
-10 11 34 40 24 64 -22 8 -16 18 -28 23 -28 10 0 11 33 0 46 -4 5 -6 8 -3 7 2
-1 12 2 23 8 34 18 56 2 64 -47 3 -24 10 -44 14 -44 14 0 20 31 10 50 -16 31
-13 63 6 56 13 -5 15 -2 10 16 -3 13 -6 26 -6 31 0 12 -28 8 -34 -5 -5 -10 -7
-10 -12 0 -3 6 -21 12 -39 12 -18 0 -36 -6 -38 -12 -4 -10 -6 -10 -6 0 -1 18
-131 17 -131 -2z"/>
<path d="M1260 11964 c0 -28 4 -35 18 -32 26 4 42 -10 42 -37 0 -13 5 -27 10
-30 6 -3 10 -21 11 -38 1 -49 27 -159 29 -122 7 129 10 147 32 187 21 39 27
43 65 46 33 2 45 -1 55 -17 11 -18 13 -18 25 -3 23 30 33 -6 34 -128 l2 -115
6 90 c8 122 29 159 92 163 45 3 46 2 65 -40 15 -34 19 -65 18 -163 0 -104 -3
-126 -22 -162 -20 -39 -26 -43 -61 -43 -48 0 -64 18 -82 90 l-14 55 -5 -65
c-6 -76 -17 -102 -33 -75 -7 13 -11 14 -17 5 -4 -7 -31 -15 -59 -17 -50 -4
-52 -3 -66 29 l-14 33 -1 -32 c0 -17 5 -35 11 -38 5 -4 14 -17 19 -30 8 -20
18 -24 77 -29 135 -11 453 -19 713 -18 146 1 623 1 1060 -1 1346 -4 1422 -3
1459 11 24 8 38 9 45 2 22 -22 126 5 126 34 0 5 10 28 22 52 22 44 48 65 48
39 0 -8 4 -15 9 -15 22 0 39 33 51 97 6 37 16 82 20 98 5 17 14 55 20 85 17
79 20 90 30 90 4 0 11 -8 15 -17 11 -27 45 -184 45 -208 0 -12 8 -29 18 -38
16 -15 17 -10 9 105 -8 105 -7 123 7 137 27 27 36 -3 35 -124 -2 -171 -2 -165
25 -165 14 0 31 -7 39 -15 14 -13 17 -9 30 38 9 28 23 88 32 132 25 123 35
157 48 152 14 -4 25 -40 47 -162 10 -55 23 -124 29 -154 13 -64 1 -89 -22 -45
-8 16 -17 41 -20 55 -5 18 -15 28 -32 31 -28 6 -38 -6 -49 -59 -4 -17 -13 -36
-19 -41 -7 -5 -49 -9 -94 -10 l-82 -1 -16 54 c-9 33 -21 55 -29 55 -8 0 -21 3
-29 6 -11 4 -17 -4 -22 -27 -9 -39 -25 -71 -42 -82 -7 -4 -13 -14 -13 -21 0
-8 -7 -19 -15 -26 -8 -7 -15 -21 -15 -31 0 -18 20 -19 588 -20 323 -1 608 -2
633 -2 26 0 52 4 58 7 14 9 14 36 0 36 -23 0 -62 68 -74 127 -5 23 -13 33 -32
38 -31 7 -39 -2 -54 -63 -25 -95 -44 -6 -20 93 5 22 15 67 21 100 34 170 54
183 80 50 18 -91 39 -177 44 -182 9 -10 18 68 12 104 -7 43 -7 153 0 165 11
18 24 -6 24 -44 0 -34 6 -47 35 -75 19 -19 35 -38 35 -43 0 -6 5 -10 10 -10
16 0 12 47 -6 64 -8 9 -22 16 -30 16 -13 0 -18 22 -14 65 2 26 40 56 63 49 20
-6 23 16 7 47 -11 19 -50 19 -2555 19 l-2545 0 0 -36z m2790 -9 c12 -15 11
-25 -20 -283 -14 -112 -31 -142 -60 -108 -9 11 -9 33 -1 88 6 40 15 118 21
173 7 55 14 110 17 123 6 25 25 29 43 7z m-2239 -52 c6 -15 17 -64 25 -108 15
-76 34 -122 34 -79 0 10 7 51 16 89 8 39 18 80 20 93 5 23 28 30 39 11 4 -6 2
-29 -3 -52 -6 -23 -17 -73 -25 -112 -8 -38 -21 -97 -28 -130 -14 -68 -24 -84
-40 -68 -12 12 -36 113 -45 193 -3 25 -9 54 -14 65 -12 27 -21 111 -13 119 13
12 24 5 34 -21z m469 -134 c0 -150 5 -163 57 -157 l28 3 5 147 c3 88 9 152 16
158 6 6 31 10 55 8 40 -3 44 -6 47 -32 4 -33 -10 -46 -51 -46 -26 0 -28 -3
-25 -32 3 -29 7 -33 36 -36 30 -3 32 -6 32 -42 0 -34 -3 -39 -26 -42 -34 -4
-49 -27 -40 -62 5 -21 11 -26 26 -21 12 4 26 -1 39 -14 28 -28 31 -14 31 159
0 84 4 151 10 155 12 7 35 -29 50 -80 6 -22 19 -58 28 -80 l17 -40 5 99 c3 67
9 101 18 104 9 3 12 -39 12 -187 0 -110 -4 -192 -10 -196 -12 -7 -34 35 -55
110 -10 33 -24 69 -31 80 -12 17 -14 7 -14 -77 0 -92 -11 -129 -30 -99 -5 9
-10 8 -19 -3 -10 -11 -48 -15 -196 -15 -199 -1 -215 3 -215 54 0 29 -24 55
-51 55 -21 0 -22 -2 -39 -67 -6 -26 -17 -43 -25 -43 -17 0 -19 32 -6 93 5 23
14 67 20 97 23 118 40 192 45 197 13 14 35 -22 45 -75 25 -134 37 -176 49
-180 10 -3 11 18 6 101 -7 111 -1 161 19 154 8 -2 14 -49 17 -153 l5 -149 35
-1 c19 -1 38 4 42 10 4 6 8 74 8 152 0 77 3 144 7 147 16 17 23 -27 23 -154z
m688 132 c3 -16 -4 -30 -18 -41 -21 -16 -22 -24 -21 -152 2 -141 -2 -168 -25
-168 -11 0 -14 28 -14 150 l0 150 -25 12 c-18 8 -25 19 -25 38 0 37 7 41 70
38 50 -3 55 -5 58 -27z m156 -11 c18 -30 21 -51 21 -160 0 -168 -26 -219 -102
-198 -25 7 -35 17 -50 56 -25 65 -25 219 1 282 21 54 31 61 75 58 27 -2 39
-10 55 -38z m221 0 c0 -33 -2 -35 -39 -40 -38 -5 -40 -7 -53 -55 -9 -37 -10
-65 -3 -104 12 -65 22 -79 63 -83 29 -3 32 -6 32 -38 0 -34 -1 -35 -41 -38
-47 -3 -65 12 -82 74 -14 50 -16 196 -2 243 18 65 37 82 83 79 41 -3 42 -4 42
-38z m148 28 c26 -20 47 -95 47 -169 0 -107 16 -89 23 26 5 97 20 155 35 140
10 -10 31 -115 31 -162 1 -41 14 -65 24 -40 2 6 10 44 17 82 6 39 14 80 16 93
2 12 11 22 19 22 18 0 23 -21 29 -140 3 -52 9 -125 12 -162 5 -57 4 -68 -9
-68 -17 0 -26 28 -28 85 0 22 -4 51 -9 65 l-7 25 -6 -25 c-3 -14 -8 -41 -10
-60 -7 -51 -26 -95 -37 -84 -4 5 -14 38 -20 74 -21 110 -27 112 -35 13 -5 -65
-11 -93 -20 -93 -19 0 -26 28 -19 69 6 32 5 34 -8 23 -9 -7 -19 -28 -22 -46
-8 -43 -27 -58 -67 -54 -55 5 -73 42 -77 158 -5 122 3 181 29 214 22 29 64 34
92 14z m671 -52 c3 -17 8 -52 11 -77 3 -26 13 -55 21 -65 16 -20 16 -11 -2
144 -6 42 -4 52 8 52 15 0 31 -56 44 -153 9 -63 26 -55 40 19 25 126 29 139
49 142 34 4 43 -11 61 -103 23 -124 23 -124 35 -103 7 12 6 41 -1 85 -16 104
-16 108 0 108 15 0 49 -122 50 -182 0 -18 3 -33 8 -33 9 0 32 95 32 133 0 43
26 97 47 97 32 0 44 -16 53 -71 18 -110 27 -149 35 -157 4 -4 4 27 1 68 -3 41
-7 90 -8 109 -2 19 2 36 8 38 12 4 26 -41 43 -131 14 -80 28 -91 36 -30 16
111 30 159 49 162 20 4 20 5 -4 -118 -6 -30 -15 -80 -20 -110 -20 -113 -25
-133 -37 -137 -7 -3 -15 7 -19 21 -7 30 -34 35 -34 7 0 -19 -17 -38 -26 -29
-5 5 -42 200 -51 266 -8 58 -30 55 -38 -5 -6 -48 -39 -207 -51 -250 -9 -33
-21 -28 -28 12 -7 36 -26 40 -26 5 0 -19 -26 -35 -35 -20 -7 11 -20 74 -41
200 -9 52 -20 99 -24 104 -5 4 -15 -27 -24 -70 -9 -44 -21 -95 -26 -115 -6
-20 -10 -48 -10 -62 0 -59 -36 -81 -46 -27 -7 34 -24 31 -24 -5 0 -27 -17 -42
-32 -27 -5 5 -14 38 -18 73 -5 35 -11 73 -14 84 -26 113 -38 186 -32 202 7 17
8 17 22 -1 7 -11 16 -33 18 -50z m806 54 c12 -6 26 -34 36 -66 17 -59 13 -110
-14 -178 -15 -38 -16 -38 -59 -33 -39 4 -43 2 -44 -17 -1 -38 -8 -78 -14 -84
-19 -19 -25 39 -23 196 2 141 6 175 18 182 20 13 77 13 100 0z m659 -12 c12
-33 3 -48 -28 -48 -54 0 -66 -20 -70 -114 -4 -103 10 -133 61 -138 30 -3 33
-6 33 -38 0 -34 -1 -35 -42 -38 -35 -3 -44 1 -54 19 -52 98 -51 301 2 358 28
30 87 29 98 -1z m205 6 c9 -8 19 -27 22 -42 3 -15 10 -40 15 -56 23 -73 2
-224 -37 -267 -26 -29 -69 -24 -93 10 -12 16 -21 35 -21 43 0 8 -7 41 -16 73
-16 62 -15 64 17 187 5 20 16 44 25 53 20 20 68 19 88 -1z m-3058 -45 c7 -24
17 -66 22 -94 6 -27 18 -82 27 -121 9 -40 15 -82 13 -95 -6 -42 -25 -30 -42
26 -16 49 -21 55 -45 55 -23 0 -28 -6 -41 -52 -27 -94 -52 -42 -31 62 12 55
33 147 53 228 13 53 29 50 44 -9z m3141 29 c14 -31 33 -112 34 -146 0 -15 4
-36 8 -47 7 -16 11 -9 25 37 9 31 16 66 16 77 0 36 24 101 37 101 15 0 18 -77
4 -112 -5 -13 -17 -59 -26 -103 -20 -101 -39 -161 -50 -158 -10 2 -26 64 -49
193 -9 52 -22 107 -28 122 -18 48 8 80 29 36z"/>
<path d="M3024 11814 c-43 -103 12 -253 68 -184 21 26 26 153 6 195 -18 39
-55 34 -74 -11z"/>
<path d="M3416 11821 c-34 -65 -11 -211 33 -211 46 0 74 107 49 190 -11 37
-18 46 -40 48 -21 3 -30 -3 -42 -27z"/>
<path d="M5764 11846 c-16 -13 -19 -27 -19 -109 0 -99 10 -127 46 -127 37 0
51 42 48 136 -3 71 -7 88 -23 100 -24 17 -28 17 -52 0z"/>
<path d="M6700 11967 c0 -38 25 -67 57 -67 11 0 28 -9 38 -20 23 -25 33 -25
54 1 15 18 18 19 29 6 13 -16 42 -116 42 -147 0 -20 -58 -120 -70 -120 -12 0
-55 55 -52 67 1 7 -11 19 -27 28 -31 16 -55 48 -44 59 3 3 -8 11 -25 17 -17 6
-33 17 -36 25 -3 8 -16 14 -30 14 -14 0 -27 4 -30 9 -7 11 -46 2 -46 -10 0
-12 -32 -49 -43 -49 -15 0 -67 -58 -67 -75 0 -21 -28 -75 -52 -100 -20 -20
-118 -169 -118 -179 0 -3 22 -3 48 1 l48 5 18 -41 c20 -43 21 -57 10 -164 -4
-46 -3 -72 5 -80 15 -15 14 -47 -1 -80 -13 -26 -38 -37 -38 -17 0 16 -27 11
-34 -6 -9 -23 -8 -24 17 -24 13 0 28 -5 34 -11 16 -16 35 -1 28 22 -9 29 15
24 53 -10 20 -19 32 -39 32 -55 0 -26 19 -37 21 -13 1 6 5 -6 8 -28 8 -47 -11
-85 -41 -85 -10 0 -16 -4 -13 -10 3 -5 14 -10 25 -10 26 0 32 -27 9 -43 -26
-19 -60 -87 -54 -108 7 -20 -4 -51 -15 -44 -14 9 -42 -26 -32 -39 5 -6 12 -24
16 -40 5 -22 2 -33 -15 -49 l-21 -20 7 22 c4 12 2 21 -4 21 -14 0 -14 -21 -1
-55 10 -25 2 -58 -13 -56 -19 3 -21 0 -7 -9 13 -8 13 -13 1 -42 -8 -18 -16
-57 -18 -85 -4 -37 -9 -53 -19 -53 -8 0 -14 -6 -14 -13 0 -7 -9 -23 -20 -35
-12 -12 -16 -22 -10 -22 5 0 10 -18 10 -40 0 -29 -5 -42 -20 -50 -13 -7 -20
-21 -20 -40 0 -17 -4 -30 -10 -30 -5 0 -10 -9 -10 -19 0 -11 -4 -23 -10 -26
-5 -3 -10 -15 -10 -25 0 -10 -9 -34 -19 -52 -19 -32 -34 -75 -141 -408 -28
-85 -57 -176 -65 -201 -8 -26 -15 -54 -15 -62 0 -9 -5 -19 -11 -23 -8 -4 -9
14 -4 62 6 65 5 68 -11 49 -16 -19 -16 -18 -11 21 2 22 17 66 31 97 29 59 27
82 -4 72 -17 -5 -18 -3 -9 27 5 18 18 45 29 60 25 34 25 54 0 68 -22 12 -30
-3 -67 -115 -31 -94 -39 -75 -47 115 -5 115 -21 209 -39 226 -4 4 -8 35 -8 68
l-2 61 -7 -65 c-12 -120 -40 -120 -40 0 0 43 -4 82 -10 85 -6 4 -10 -13 -10
-43 0 -27 -6 -65 -14 -83 -10 -24 -11 -39 -4 -53 7 -12 6 -32 -2 -62 -9 -32
-10 -51 -1 -75 6 -18 11 -49 11 -69 0 -21 7 -57 15 -80 17 -47 20 -147 6 -169
-6 -10 -5 -19 3 -25 33 -29 45 -135 21 -186 -7 -14 -10 -39 -8 -57 4 -25 -8
-91 -32 -178 -19 -66 -36 -71 -46 -12 -3 20 -11 42 -16 49 -6 7 -13 33 -16 58
-3 25 -10 60 -16 79 -6 19 -8 45 -5 57 13 51 -43 241 -94 319 -20 32 -25 50
-23 92 2 50 1 53 -21 51 -17 -2 -24 3 -26 20 -2 12 -7 22 -12 22 -5 0 -11 13
-15 28 -3 15 -15 35 -27 43 -40 27 -58 53 -56 78 2 15 -2 25 -8 24 -7 -1 -9 8
-6 22 2 14 8 25 14 25 5 0 0 9 -10 20 -12 13 -25 18 -36 14 -22 -8 -57 34 -53
63 2 12 1 22 -2 21 -33 -3 -43 24 -15 40 9 5 14 14 10 21 -12 19 -36 12 -48
-14 -8 -18 -14 -22 -19 -13 -4 7 -3 16 3 19 9 6 8 18 -1 49 -10 33 -16 40 -31
35 -13 -4 -20 0 -24 13 -4 10 -18 25 -31 32 -23 12 -28 11 -55 -15 -37 -35
-38 -45 -5 -45 33 0 41 -22 21 -61 -20 -41 -20 -51 2 -47 13 2 17 -4 18 -29 0
-18 7 -40 16 -50 43 -49 52 -122 19 -145 -24 -17 -45 -62 -38 -81 3 -9 14 -13
31 -10 20 4 28 0 37 -21 9 -20 9 -29 0 -40 -10 -12 -8 -22 15 -51 27 -36 27
-37 11 -68 -20 -38 -11 -90 17 -95 17 -4 17 -2 2 19 -21 30 -20 39 3 39 11 0
22 -8 24 -17 3 -10 5 4 6 31 0 27 4 46 8 42 10 -10 34 76 27 98 -4 11 -2 16 4
12 6 -3 13 -2 17 4 9 14 35 13 35 -2 0 -6 19 -30 43 -53 36 -34 49 -58 75
-136 38 -112 72 -243 72 -275 0 -13 4 -25 9 -28 16 -10 35 -100 36 -174 2 -61
0 -72 -13 -70 -9 2 -19 14 -22 27 -8 35 -26 37 -46 6 -16 -25 -19 -26 -30 -10
-8 11 -14 13 -19 5 -8 -14 69 -90 91 -90 9 0 12 -5 9 -11 -4 -5 0 -18 9 -27 8
-10 24 -38 35 -63 11 -25 30 -58 42 -73 l21 -27 24 32 c13 17 28 56 34 85 6
30 17 54 23 54 26 -1 58 -38 75 -90 l19 -54 7 34 c10 49 26 20 26 -47 0 -28 5
-55 10 -58 6 -3 11 -3 11 2 1 4 3 19 5 33 16 120 29 179 43 205 9 18 18 64 21
115 5 77 7 85 25 85 17 0 20 8 23 49 3 41 6 47 22 43 16 -4 18 -1 13 25 -5 24
-2 30 16 35 12 3 24 16 27 30 4 13 9 21 12 18 11 -10 41 28 71 90 17 35 46 84
66 109 19 25 35 52 35 59 0 7 7 22 15 33 8 10 15 30 15 43 0 29 30 101 42 101
4 0 8 7 8 15 0 19 -29 20 -36 0 -13 -34 -24 1 -24 78 0 82 0 82 71 222 40 77
87 163 105 192 44 69 135 157 197 190 56 30 86 74 87 128 0 38 24 73 52 77 41
6 28 42 -27 74 -30 17 -12 44 30 44 19 0 35 5 35 11 0 20 -34 69 -52 75 -27 8
-23 60 7 96 28 33 31 58 13 88 -10 15 -9 26 5 55 21 45 21 78 1 132 -15 40
-34 57 -34 32 0 -5 -4 -7 -10 -4 -5 3 -10 17 -10 30 0 13 -4 26 -9 29 -5 4
-12 24 -16 45 -3 22 -13 47 -20 58 -18 23 -19 67 -2 82 20 16 79 6 97 -16 8
-11 28 -59 45 -107 23 -71 34 -90 57 -102 18 -9 36 -33 50 -63 13 -31 26 -47
34 -44 21 8 39 -70 26 -114 -6 -21 -8 -43 -3 -51 7 -13 10 -11 15 6 15 47 26
19 24 -62 -2 -46 -6 -82 -10 -79 -5 2 -8 -5 -8 -16 0 -12 -5 -21 -11 -21 -5 0
-7 -4 -4 -10 3 -5 2 -10 -3 -10 -14 0 -45 -77 -38 -95 3 -9 0 -18 -9 -21 -17
-7 -20 -50 -4 -59 7 -5 5 -14 -4 -28 -8 -12 -17 -44 -20 -72 -4 -27 -11 -72
-17 -100 -5 -27 -15 -84 -21 -125 -14 -105 -15 -106 -39 -85 -20 18 -20 17
-20 -11 0 -17 -6 -36 -12 -42 -10 -10 -10 -15 1 -21 17 -11 9 -47 -10 -43 -8
2 -11 0 -7 -3 4 -4 3 -16 -3 -27 -8 -14 -18 -19 -35 -15 -13 2 -24 0 -24 -4 0
-5 -4 -9 -10 -9 -18 0 -10 36 20 93 33 61 31 87 -6 87 -26 0 -30 11 -13 42 8
16 8 22 -2 29 -18 11 -29 2 -29 -25 0 -12 -11 -32 -25 -44 -14 -12 -25 -29
-25 -38 0 -9 -9 -27 -20 -41 -11 -14 -20 -31 -20 -37 0 -6 -13 -26 -29 -44
-16 -17 -33 -41 -36 -53 -5 -15 -9 -18 -15 -9 -6 9 -9 9 -16 -1 -23 -37 -32
-59 -24 -64 5 -3 12 4 15 15 7 23 23 22 39 -2 7 -12 3 -23 -16 -47 -15 -17
-29 -44 -33 -61 -4 -16 -11 -30 -16 -30 -5 0 -9 -15 -9 -32 0 -18 -10 -49 -21
-68 -13 -20 -21 -50 -21 -70 1 -19 -3 -37 -10 -41 -6 -4 -15 -29 -20 -55 -5
-27 -12 -62 -15 -78 -11 -54 18 -23 50 55 18 41 42 88 55 103 12 16 22 34 22
41 0 15 54 107 88 150 36 46 194 205 203 205 16 0 9 -80 -8 -107 -10 -15 -12
-24 -5 -20 7 5 12 3 12 -7 0 -8 -5 -18 -11 -22 -8 -5 -10 -31 -5 -83 5 -65 3
-83 -14 -119 -25 -51 -25 -61 0 -55 16 4 20 -2 26 -48 l8 -54 17 58 c20 68 27
77 39 57 7 -12 10 -9 10 12 0 14 -4 28 -9 30 -13 5 -24 48 -12 48 5 0 12 -8
15 -17 3 -10 3 3 1 29 -3 30 0 52 8 60 7 7 13 32 12 56 0 23 3 42 7 42 5 0 8
13 8 29 0 16 8 44 17 63 9 18 20 41 25 51 5 10 6 40 2 67 -6 42 -4 50 10 50
17 0 20 12 16 78 -2 37 1 44 19 49 25 6 27 25 6 43 -20 17 -19 37 3 49 10 6
17 22 18 43 0 18 1 51 2 73 2 37 4 39 17 21 8 -10 12 -23 8 -29 -3 -6 -1 -7 4
-4 6 4 13 37 17 74 4 38 13 79 20 92 10 18 11 29 3 42 -8 13 -7 25 3 46 8 15
13 42 11 59 -1 18 7 46 19 67 17 29 28 37 50 37 19 0 31 -6 35 -19 4 -12 19
-21 46 -25 45 -7 87 -28 143 -71 30 -23 40 -27 44 -16 7 22 73 79 102 89 14 5
38 13 55 18 47 15 46 28 -13 164 -22 50 -52 68 -52 30 0 -29 -13 -25 -53 19
-19 22 -38 37 -41 33 -3 -3 -6 2 -6 12 0 9 5 14 10 11 6 -3 10 1 10 11 0 13
-6 15 -32 10 -18 -4 -51 -15 -73 -26 -23 -11 -47 -20 -53 -20 -33 0 9 86 65
135 15 12 48 33 73 45 25 13 52 27 60 31 71 41 107 33 176 -36 58 -58 90 -114
127 -225 35 -106 49 -178 45 -229 -3 -47 -27 -71 -29 -29 -1 23 -1 23 -8 -2
-5 -17 -3 -31 7 -42 10 -12 11 -18 4 -18 -13 0 -16 -50 -6 -87 4 -13 11 -20
17 -16 5 3 8 2 4 -3 -3 -5 -1 -29 5 -54 6 -25 11 -108 12 -185 l1 -140 43 -86
c30 -59 43 -96 41 -117 -3 -22 2 -36 16 -46 20 -15 20 -15 1 -48 -48 -83 -59
-108 -52 -115 3 -4 19 6 34 22 l27 30 3 -24 c2 -13 -1 -28 -7 -34 -15 -15 -14
-38 4 -57 14 -16 14 -22 -1 -66 -9 -27 -16 -73 -15 -103 1 -30 -6 -79 -15
-110 -17 -55 -17 -56 -25 -26 -5 17 -8 46 -7 65 1 39 -20 218 -27 231 -3 4 -1
10 5 14 5 3 10 15 10 26 0 11 -4 17 -10 14 -6 -4 -10 8 -11 27 -1 35 -2 43
-17 148 -6 42 -6 67 0 71 7 4 6 9 -1 13 -6 4 -14 0 -17 -8 -9 -24 -22 -10 -16
19 5 30 3 30 -43 8 -21 -10 -34 -22 -31 -30 3 -7 1 -13 -4 -13 -4 0 -11 14
-15 30 -4 17 -11 30 -16 30 -4 0 -12 14 -17 32 -4 17 -13 33 -20 36 -10 3 -11
-28 -8 -132 5 -147 -1 -160 -44 -114 l-20 22 -6 -33 c-8 -38 -27 -36 -35 5
l-7 29 -1 -27 c-1 -26 -9 -32 -38 -29 -6 1 -14 -3 -17 -8 -4 -5 -23 -1 -46 10
-21 10 -46 19 -55 19 -8 0 -15 4 -15 9 0 5 -10 13 -22 17 -26 8 -48 28 -48 43
0 20 -17 11 -28 -14 -7 -14 -23 -30 -38 -35 -43 -17 -51 -13 -46 21 2 17 -1
41 -8 54 -11 20 -11 27 0 40 10 12 10 15 -4 15 -12 0 -16 7 -14 23 2 16 10 22
28 22 24 0 25 2 22 53 -3 51 -2 52 25 53 15 1 32 1 37 0 24 -5 54 11 64 34 14
30 37 32 54 5 15 -23 66 -27 74 -6 3 8 12 12 20 9 17 -6 17 2 1 47 -17 47 -36
81 -58 105 -21 23 -33 91 -18 100 16 10 -1 26 -21 20 -13 -4 -23 1 -31 16 -10
19 -9 25 6 35 15 11 15 17 5 49 -14 44 -62 100 -101 121 -44 22 -106 19 -120
-7 -9 -18 -7 -27 10 -50 24 -33 26 -42 9 -69 -11 -17 -9 -30 11 -83 13 -34 26
-79 28 -99 5 -33 2 -38 -20 -43 -14 -4 -28 -14 -32 -23 -11 -28 -26 -254 -19
-284 4 -19 1 -35 -9 -46 -8 -9 -18 -32 -22 -50 -4 -18 -18 -40 -31 -48 -28
-19 -32 -62 -6 -71 30 -11 52 -35 52 -60 0 -32 -24 -39 -64 -18 -27 15 -36 16
-56 5 -23 -12 -23 -13 -5 -26 10 -8 24 -14 30 -14 22 0 49 -41 49 -74 0 -19
-9 -45 -22 -61 -27 -34 -29 -67 -5 -63 12 2 19 -6 23 -27 5 -28 8 -26 51 55
63 120 106 120 102 0 -1 -19 -2 -82 -2 -139 0 -121 -18 -232 -37 -224 -17 6
-54 -98 -53 -150 2 -41 -3 -63 -36 -162 -56 -167 -58 -175 -60 -260 0 -44 -6
-104 -13 -134 -7 -29 -12 -63 -11 -75 0 -19 1 -19 11 4 l11 25 7 -30 c4 -16 8
-48 10 -70 1 -32 3 -36 10 -20 5 11 9 35 9 52 1 18 13 63 27 100 45 117 66
191 89 311 7 35 25 44 25 13 0 -25 16 -36 27 -18 4 8 18 19 31 26 38 20 27 57
-16 52 -23 -3 -25 30 -3 52 18 19 24 20 42 9 15 -10 24 -10 34 -2 10 8 12 -3
9 -60 -2 -61 0 -70 12 -59 12 9 14 6 14 -22 0 -19 -4 -70 -9 -114 -5 -44 -6
-98 -1 -120 l8 -40 3 55 c2 30 4 69 4 85 1 17 11 50 22 75 l21 45 7 -28 c8
-31 2 -178 -14 -330 -6 -54 -15 -171 -21 -260 -5 -89 -14 -177 -19 -196 -18
-60 1 -55 21 5 11 33 26 64 34 70 21 17 35 63 44 147 8 83 15 101 30 77 9 -14
17 126 12 205 -1 17 -3 45 -4 62 -1 21 5 41 18 55 21 23 54 88 54 105 0 14 24
63 32 63 9 0 40 57 67 125 13 33 32 71 41 85 9 14 20 33 23 43 5 13 14 16 37
12 32 -6 42 8 14 19 -15 6 -15 8 -2 24 9 9 23 41 33 70 17 53 29 61 66 42 24
-13 49 -61 49 -95 l0 -26 -27 21 c-35 28 -41 11 -18 -51 44 -118 47 -138 43
-272 -3 -102 -8 -140 -22 -169 -17 -36 -17 -39 2 -120 22 -90 35 -167 57 -353
8 -66 17 -129 20 -140 2 -12 5 -79 6 -151 2 -239 16 -160 19 108 4 359 3 387
-25 514 -4 18 -3 34 3 38 11 7 36 -51 50 -119 6 -27 17 -81 25 -120 36 -168
42 -223 77 -670 6 -77 15 -167 20 -200 5 -33 12 -118 16 -190 6 -118 17 -175
31 -161 11 11 -3 569 -17 641 -5 28 -9 109 -10 180 0 72 -2 166 -4 210 -3 73
-4 254 -2 459 1 53 -3 81 -11 83 -9 3 -9 10 -1 29 12 26 38 33 38 10 0 -13 20
-26 41 -26 5 0 9 8 9 18 0 10 8 27 18 38 43 48 43 49 27 87 -8 20 -15 52 -15
70 0 22 -9 43 -25 61 -16 18 -25 39 -25 60 0 19 -7 39 -15 46 -8 7 -15 25 -15
41 0 34 -32 59 -77 59 -18 0 -33 4 -33 9 0 6 -25 26 -55 46 -30 21 -55 40 -55
44 0 11 63 31 100 31 30 0 89 -28 115 -55 15 -15 46 -64 71 -110 47 -88 91
-303 65 -319 -6 -4 -11 -25 -11 -47 0 -24 -5 -39 -12 -39 -10 0 -13 -32 -11
-132 1 -73 -3 -150 -8 -171 -6 -21 -12 -91 -15 -155 -3 -65 -9 -162 -13 -217
-12 -141 -6 -837 7 -905 27 -132 42 -239 42 -295 0 -33 5 -79 10 -102 15 -65
41 -410 34 -454 -6 -34 -10 -39 -33 -39 -15 -1 -43 -15 -65 -34 -38 -33 -40
-36 -45 -115 -9 -119 -38 -132 -78 -35 -10 24 -21 44 -26 44 -4 0 -7 -36 -6
-81 2 -130 -24 -124 -63 16 -9 31 -20 51 -31 53 -14 3 -17 -9 -19 -87 -3 -97
-18 -121 -30 -49 -12 70 -18 88 -28 88 -6 0 -10 -85 -10 -227 0 -193 3 -239
20 -298 16 -61 19 -65 19 -33 1 31 5 39 26 44 32 8 38 29 29 112 -7 78 6 117
52 147 37 24 103 24 121 0 15 -21 15 -37 4 -185 -5 -58 -6 -111 -3 -117 2 -8
23 -13 52 -13 32 0 55 -6 73 -20 47 -37 93 -137 133 -287 6 -23 40 -14 53 15
21 44 49 124 61 172 20 78 32 90 88 83 73 -8 89 4 97 79 3 35 9 286 13 558 4
272 11 502 15 511 10 20 -6 86 -38 154 -31 68 -125 336 -145 415 -15 59 -60
284 -60 302 0 13 6 15 27 9 30 -8 30 -9 69 -171 35 -143 37 -153 73 -249 32
-90 54 -122 71 -105 13 13 -12 101 -38 135 -10 13 -35 94 -55 179 -56 233 -60
264 -48 334 17 94 31 234 31 314 l0 74 59 56 c73 70 91 118 67 175 -17 42 -36
46 -73 17 -14 -11 -31 -20 -37 -20 -8 0 -18 51 -30 147 -19 155 -27 183 -52
183 -30 0 -68 -134 -58 -200 7 -42 28 -54 37 -20 9 35 35 12 44 -38 18 -108
-1 -489 -29 -564 -34 -92 -78 56 -112 372 -32 294 -29 493 10 703 37 198 73
227 181 140 32 -26 65 -57 74 -68 10 -11 33 -29 53 -39 48 -26 78 -12 109 51
46 89 117 326 103 340 -16 17 -41 -18 -77 -107 -43 -106 -67 -144 -97 -148
-17 -3 -22 4 -27 41 -4 24 -2 62 5 86 8 32 8 51 0 77 -13 39 -27 44 -35 12 -3
-13 -11 -52 -19 -87 -20 -85 -27 -90 -70 -55 -45 38 -51 54 -51 149 0 44 -4
81 -10 83 -10 3 -13 -5 -35 -95 -9 -36 -15 -43 -35 -43 -15 0 -29 9 -36 21
-13 25 -42 196 -35 207 3 5 1 14 -5 22 -9 15 -12 -61 -9 -218 1 -76 -17 -182
-32 -182 -12 0 -10 342 3 517 11 152 9 262 -3 213 -15 -59 -38 -192 -48 -280
-13 -113 -43 -280 -50 -280 -3 0 -11 15 -18 33 -27 64 -47 99 -74 125 -15 15
-28 32 -28 39 0 6 -14 21 -31 33 -29 21 -29 23 -13 41 19 21 44 25 44 7 0 -6
2 -9 5 -6 3 2 -5 23 -17 45 -15 27 -19 45 -13 59 4 10 7 22 7 27 -1 4 9 12 23
19 13 6 27 19 31 30 3 10 10 16 15 12 18 -11 101 88 110 131 15 77 22 100 31
106 5 3 16 46 25 95 8 49 19 96 24 106 5 9 9 30 9 46 0 16 11 55 25 86 14 31
25 62 25 69 0 7 11 35 24 63 13 27 29 65 37 84 12 33 23 52 83 141 26 39 72
79 89 79 6 0 22 14 36 30 18 21 38 33 66 37 22 3 51 14 64 24 16 13 28 16 40
9 19 -9 70 -29 160 -61 29 -10 70 -33 90 -49 20 -17 63 -54 96 -81 62 -52 77
-71 210 -266 105 -155 137 -221 190 -398 10 -33 26 -85 37 -116 10 -30 18 -72
18 -92 0 -19 5 -48 11 -64 6 -15 15 -55 20 -88 12 -79 22 -130 48 -244 17 -74
22 -128 22 -248 1 -84 5 -156 10 -159 5 -3 9 -24 9 -47 0 -25 -4 -37 -9 -32
-18 19 -41 119 -41 176 0 32 -4 79 -9 106 -6 26 -15 86 -21 133 -15 112 -37
216 -68 319 -34 114 -45 87 -27 -65 7 -65 20 -171 27 -234 20 -174 17 -742 -5
-840 -9 -41 -18 -91 -21 -110 -2 -19 -4 44 -4 140 1 159 -2 183 -25 265 -31
106 -32 135 -11 212 41 147 35 264 -9 171 -8 -18 -20 -53 -27 -78 -6 -25 -16
-62 -21 -82 -7 -27 -15 -38 -29 -38 -27 0 -34 15 -45 98 -5 40 -14 74 -20 75
-6 1 -13 -29 -16 -68 -8 -99 -14 -112 -64 -135 -24 -11 -48 -20 -53 -20 -12 0
-29 39 -37 84 -11 55 -32 110 -44 114 -21 7 -23 -30 -7 -114 10 -47 14 -89 11
-92 -20 -20 -92 131 -109 228 -14 82 -35 163 -44 172 -6 6 -18 8 -27 4 -14 -5
-16 -17 -12 -69 11 -148 54 -339 101 -443 36 -80 69 -98 153 -83 32 6 75 21
95 34 74 49 99 42 137 -34 43 -88 53 -176 48 -418 -6 -227 -13 -286 -52 -402
-9 -28 -20 -53 -25 -56 -24 -15 -35 46 -40 210 -3 98 -9 170 -15 170 -10 0
-34 -103 -35 -153 0 -25 -9 -43 -34 -68 -19 -19 -41 -34 -50 -34 -19 0 -36
-30 -36 -64 0 -34 11 -38 60 -21 23 8 46 13 50 10 4 -3 11 -22 15 -42 4 -21
16 -66 27 -100 19 -57 19 -65 5 -110 -8 -26 -20 -68 -27 -93 -7 -25 -16 -54
-21 -65 -4 -11 -20 -56 -35 -100 -15 -44 -33 -92 -40 -107 -19 -36 -19 -79 0
-72 12 5 23 26 56 109 24 59 60 171 60 187 0 10 4 26 9 36 5 9 14 42 21 72 7
30 31 93 53 140 34 69 42 80 45 60 2 -14 -1 -47 -7 -75 -12 -60 -24 -119 -46
-240 -23 -127 -53 -240 -83 -313 -25 -61 -25 -64 -13 -165 7 -56 18 -140 26
-187 7 -47 19 -121 25 -165 18 -128 31 -199 41 -217 15 -30 39 -102 39 -120 0
-9 13 -56 30 -105 21 -61 39 -96 59 -113 15 -14 38 -41 50 -61 37 -64 104 -73
171 -23 22 16 40 32 40 36 0 14 127 138 141 138 8 -1 25 -18 39 -38 l25 -37 0
-270 c0 -148 3 -275 7 -281 4 -6 19 -9 33 -6 14 2 31 -1 39 -7 7 -6 21 -9 29
-5 13 5 18 -3 23 -35 4 -23 10 -43 14 -46 4 -2 5 -58 2 -123 -5 -130 4 -232
19 -197 4 11 8 32 8 46 1 44 71 252 99 294 42 65 94 115 119 115 13 0 23 5 23
12 0 7 6 6 18 -4 9 -8 31 -20 47 -27 40 -16 135 -168 135 -216 0 -11 7 -30 15
-41 8 -10 15 -30 15 -44 0 -14 9 -40 20 -58 13 -21 20 -50 20 -83 0 -47 16
-148 41 -269 13 -59 22 -335 19 -572 -1 -117 2 -188 8 -188 11 0 28 91 37 195
3 39 10 115 15 170 6 55 17 172 25 260 8 88 20 201 25 250 25 247 31 308 40
410 9 106 20 211 40 400 10 91 43 419 60 595 5 52 14 145 20 205 5 61 17 178
25 260 9 83 20 200 25 260 16 183 27 253 47 292 23 48 53 55 78 16 34 -53 107
-133 139 -152 17 -11 48 -22 69 -26 35 -7 40 -4 83 39 26 25 48 46 50 46 2 0
4 -13 4 -30 0 -16 5 -30 10 -30 15 0 12 67 -2 74 -7 3 -3 3 10 0 19 -5 22 -1
22 25 0 17 4 31 8 31 9 0 26 37 68 150 51 140 55 146 66 127 12 -22 2 -70 -23
-111 -23 -37 -24 -53 -4 -72 22 -22 18 -66 -8 -105 -12 -19 -31 -54 -41 -79
-10 -25 -23 -55 -28 -66 -6 -12 -8 -30 -6 -40 5 -18 5 -18 13 1 42 110 55 120
55 46 0 -33 -6 -56 -19 -73 -11 -13 -23 -37 -26 -51 -4 -15 -11 -30 -16 -33
-5 -3 -9 -16 -9 -29 0 -13 -4 -27 -10 -30 -5 -3 -10 -21 -9 -38 0 -30 2 -28
26 26 14 31 29 57 34 57 18 0 8 -66 -18 -120 -14 -30 -30 -64 -33 -75 -4 -11
-15 -37 -24 -58 -9 -21 -16 -46 -16 -56 0 -10 -3 -21 -7 -25 -10 -10 -33 -78
-33 -99 0 -10 5 -15 10 -12 6 3 10 14 10 25 0 10 7 21 16 24 8 3 12 11 9 16
-4 6 0 21 8 33 8 12 17 36 20 52 4 17 9 45 13 63 4 19 12 32 22 32 22 0 9 -96
-18 -125 -21 -23 -27 -60 -10 -70 18 -11 11 -69 -15 -120 -13 -27 -25 -58 -25
-67 0 -9 -5 -20 -10 -23 -5 -3 -10 -19 -10 -35 0 -16 -4 -32 -10 -35 -12 -7
-14 -45 -2 -45 9 0 32 49 32 71 0 9 9 27 20 40 l19 24 1 -26 c0 -30 -19 -89
-29 -89 -13 0 -86 -208 -76 -218 7 -7 8 -6 46 73 34 70 34 70 37 34 3 -37 -5
-62 -39 -118 -30 -50 -51 -119 -42 -136 6 -11 14 -2 28 35 23 58 35 64 35 16
0 -21 -8 -42 -23 -58 -12 -13 -29 -44 -36 -69 -7 -24 -18 -56 -23 -70 -10 -28
-6 -105 4 -79 3 8 14 41 23 73 9 31 21 57 26 57 5 0 9 -22 9 -49 0 -39 -7 -59
-33 -97 -37 -56 -61 -122 -55 -150 6 -27 38 48 38 88 0 26 2 29 15 18 23 -19
19 -82 -8 -122 -13 -18 -27 -45 -31 -58 -19 -63 -23 -89 -15 -101 5 -9 10 -5
14 14 4 15 11 27 16 27 15 0 10 -39 -11 -79 -25 -49 -50 -121 -50 -143 0 -27
17 -22 24 7 4 14 11 25 16 25 16 0 12 -66 -4 -80 -21 -17 -70 -146 -63 -164
10 -24 27 -19 27 8 0 31 10 56 21 56 14 0 11 -63 -5 -85 -26 -38 -63 -159 -56
-185 6 -23 7 -22 14 13 4 21 11 35 17 32 14 -9 11 -61 -4 -74 -8 -6 -19 -30
-26 -53 -7 -24 -17 -53 -22 -66 -12 -30 -11 -52 1 -52 6 0 10 7 10 15 0 20 29
65 42 65 17 0 2 -63 -31 -135 -17 -37 -31 -73 -31 -80 0 -8 -4 -17 -10 -20
-13 -8 -13 -51 0 -75 7 -14 6 -30 -5 -57 -25 -65 -45 -283 -25 -283 6 0 10 9
10 19 0 26 10 51 21 51 5 0 9 -16 9 -35 0 -24 -5 -35 -15 -35 -8 0 -15 -5 -15
-12 0 -6 -3 -8 -7 -4 -4 4 -15 -17 -25 -46 -21 -61 -33 -198 -18 -198 6 0 10
13 10 29 0 17 4 32 9 35 5 3 12 22 15 41 7 38 26 39 26 2 -1 -12 -9 -47 -20
-77 -16 -46 -17 -56 -4 -58 20 -5 17 -49 -6 -101 -22 -48 -25 -77 -10 -86 19
-12 10 -67 -24 -146 -19 -43 -37 -97 -41 -121 l-6 -43 20 30 c12 17 21 36 21
43 0 6 5 12 10 12 13 0 13 -44 1 -68 -19 -35 -63 -178 -100 -322 -35 -138
-103 -354 -131 -415 -33 -73 -51 -90 -112 -106 -41 -11 -51 -11 -81 6 -51 27
-112 93 -142 153 -36 73 -48 168 -43 351 l5 155 -52 -110 c-28 -60 -67 -127
-85 -148 -107 -121 -209 -65 -298 164 -45 115 -80 258 -83 333 -1 23 -4 17
-11 -23 -5 -30 -7 -128 -5 -217 3 -95 1 -177 -4 -199 -8 -25 -7 -57 2 -106
l13 -71 -28 -23 c-42 -37 -56 -31 -56 20 0 51 -14 61 -85 57 -50 -2 -95 25
-130 78 -30 45 -78 172 -94 251 -20 96 -41 292 -41 380 0 48 -7 102 -15 125
-17 49 -19 124 -4 162 12 29 24 891 13 943 -3 14 -16 33 -29 42 l-24 18 0
-455 c0 -250 -3 -460 -6 -465 -4 -6 1 -70 9 -143 16 -130 17 -382 2 -406 -11
-16 12 -153 28 -171 8 -9 18 -65 24 -145 26 -307 27 -295 -24 -295 -19 0 -45
-7 -58 -15 -21 -14 -25 -14 -36 0 -7 9 -10 27 -6 48 4 22 1 40 -9 54 -17 24
-87 48 -112 39 -14 -6 -55 28 -66 55 -5 11 -9 10 -19 -6 -7 -11 -31 -37 -52
-59 -35 -34 -43 -37 -75 -32 -42 6 -80 46 -116 122 -43 91 -85 236 -85 295 0
26 -3 31 -10 19 -14 -20 -3 -277 16 -390 19 -114 18 -119 -13 -130 -16 -6 -39
-16 -52 -22 -19 -11 -25 -10 -37 6 -9 13 -10 24 -4 37 31 57 -13 99 -103 99
-53 0 -65 4 -90 28 l-29 27 7 -81 c7 -81 7 -82 -19 -99 -14 -9 -32 -15 -40
-12 -8 3 -20 -1 -27 -9 -10 -13 -14 -12 -30 2 -17 15 -17 19 -4 51 20 48 20
48 -19 72 -23 15 -50 21 -88 21 -42 0 -62 5 -83 22 l-28 22 7 -76 c9 -89 -2
-108 -64 -108 -58 0 -89 45 -61 89 5 7 6 22 4 32 -7 23 -51 25 -93 4 -34 -18
-93 -26 -131 -18 -45 9 -103 66 -142 140 -41 78 -107 271 -107 312 0 16 -5 42
-11 59 -6 17 -14 52 -19 79 l-8 48 -1 -43 c0 -24 3 -73 8 -110 6 -37 15 -105
21 -152 15 -113 67 -326 87 -357 14 -22 14 -25 -2 -43 -22 -25 -73 -41 -118
-38 -19 1 -42 -4 -50 -10 -12 -10 -18 -8 -32 14 -14 22 -15 30 -4 56 12 29 11
33 -15 54 -22 19 -39 24 -85 24 -43 0 -65 5 -84 20 -32 25 -36 14 -25 -57 11
-69 0 -87 -59 -102 -42 -11 -49 -10 -60 6 -8 9 -11 24 -7 33 28 65 2 92 -99
101 -58 5 -74 11 -90 30 l-20 24 6 -77 c7 -93 -1 -106 -66 -113 -55 -7 -68 8
-50 56 10 26 8 31 -19 54 -21 18 -41 25 -69 25 -50 0 -77 14 -89 46 -11 29
-26 31 -35 5 -3 -11 -24 -36 -46 -56 -35 -31 -45 -35 -72 -30 -83 18 -161 167
-208 400 -12 59 -1 -134 12 -221 10 -60 9 -75 -5 -102 -9 -17 -16 -40 -16 -51
0 -11 -4 -22 -9 -26 -5 -3 -12 -19 -16 -35 -6 -28 -25 -43 -25 -20 0 18 -18
10 -23 -10 -3 -11 -10 -20 -17 -20 -8 0 -10 14 -6 48 28 239 37 300 67 447 18
82 20 114 13 180 -11 102 -11 505 0 655 5 63 6 113 4 110 -3 -3 -8 -37 -11
-77 -3 -40 -10 -87 -15 -105 -20 -65 -43 -267 -62 -543 -10 -154 -24 -336 -30
-405 -7 -69 -14 -154 -16 -190 -5 -84 -17 -125 -35 -125 -10 0 -13 12 -11 47
4 67 -16 78 -135 78 l-93 0 -19 31 c-22 36 -28 72 -40 255 -10 141 -21 174
-60 174 -20 0 -22 -4 -17 -22 10 -33 28 -234 26 -295 0 -29 6 -89 15 -134 21
-114 21 -120 -12 -117 -26 3 -28 1 -27 -32 1 -19 9 -87 19 -150 9 -63 20 -151
24 -195 8 -83 27 -138 45 -132 6 2 13 37 16 77 6 81 23 106 59 83 14 -9 21 -9
30 0 19 19 31 -11 31 -78 0 -70 35 -149 66 -151 11 -1 27 -5 36 -9 13 -5 35
10 83 57 68 67 78 93 48 123 -10 11 -12 19 -6 23 20 13 53 92 53 127 0 24 11
52 35 88 19 28 35 61 35 72 0 31 11 65 21 65 5 0 12 -12 15 -27 4 -15 13 -38
20 -52 21 -39 17 -49 -25 -71 -22 -10 -48 -31 -59 -45 -57 -72 -57 -312 0
-468 l21 -58 -19 -177 c-20 -195 -21 -275 -3 -340 17 -61 41 -71 74 -29 17 20
25 25 20 12 -14 -42 -18 -85 -6 -85 15 0 76 128 97 205 l17 60 12 -60 c21
-105 40 -125 99 -104 32 11 34 10 68 -26 35 -39 36 -39 62 -22 l26 17 0 -30
c0 -39 15 -38 36 2 13 26 19 81 27 248 6 118 10 245 10 282 -1 72 -20 124 -44
121 -8 -2 -19 10 -26 27 -8 20 -18 30 -32 30 -13 0 -31 15 -48 41 -26 40 -33
42 -74 25 -10 -5 -19 -1 -22 8 -9 23 1 43 25 49 19 5 20 11 14 87 -4 57 -2 79
5 74 6 -4 15 0 20 7 7 11 9 10 9 -3 0 -13 11 -20 40 -24 22 -4 43 -11 46 -16
4 -5 10 -5 17 1 7 5 31 14 55 21 40 10 43 13 42 43 -1 18 -2 38 -1 45 1 17 21
15 21 -3 0 -10 9 -6 28 14 45 49 101 50 58 2 -8 -9 -25 -45 -38 -81 -23 -64
-23 -70 -20 -415 3 -318 5 -356 24 -419 30 -103 62 -142 94 -115 11 9 14 6 14
-20 0 -58 32 -30 66 59 10 25 23 53 30 63 11 17 14 12 28 -38 18 -59 37 -76
67 -56 17 10 19 8 19 -13 0 -34 18 -42 29 -14 7 17 5 26 -6 35 -9 7 -12 19 -8
33 9 27 18 23 47 -20 28 -42 72 -53 83 -21 6 21 25 29 25 12 0 -5 12 -23 26
-40 42 -50 82 -38 112 32 12 29 32 37 32 13 0 -8 12 -29 26 -46 34 -40 72 -38
94 5 29 57 29 57 57 35 37 -29 66 -25 100 13 24 28 35 33 73 33 25 0 52 3 60
6 10 5 21 -3 35 -25 17 -26 27 -32 57 -32 20 0 40 -3 44 -8 21 -20 73 7 87 46
9 25 21 19 50 -23 19 -29 29 -35 55 -34 28 2 32 -1 32 -22 0 -13 4 -24 10 -24
14 0 30 35 30 66 0 22 -3 25 -12 16 -20 -20 -31 -13 -23 15 9 39 23 50 31 27
14 -36 56 -84 75 -84 10 0 24 9 31 20 15 24 35 25 62 5 11 -8 23 -15 27 -15
12 0 70 62 79 84 7 18 9 18 9 3 1 -10 -8 -36 -20 -58 -22 -44 -21 -53 5 -43
30 12 87 147 127 304 30 114 26 366 -5 341 -8 -7 -18 4 -35 38 -32 67 -72 114
-102 116 -34 2 -37 32 -5 46 25 12 31 29 28 72 -2 17 0 17 13 3 9 -8 14 -21
13 -28 -2 -8 6 -13 20 -13 12 0 27 -7 32 -15 8 -12 10 -11 10 8 0 12 5 22 10
22 6 0 10 13 10 29 0 17 5 33 10 36 6 3 10 0 10 -8 0 -8 9 -22 20 -32 17 -16
20 -16 20 -2 0 8 3 24 6 34 5 15 4 16 -6 3 -9 -13 -11 -12 -7 5 2 11 9 19 15
17 13 -2 13 -2 17 45 2 28 45 83 65 83 19 0 17 -17 -8 -59 -26 -45 -27 -51
-28 -221 -1 -96 -7 -215 -13 -265 -16 -135 -14 -371 4 -432 18 -62 45 -88 80
-79 22 6 25 3 25 -20 0 -16 5 -24 13 -22 18 6 21 50 4 62 -8 7 -11 18 -8 29 6
16 12 13 51 -22 54 -49 73 -51 97 -11 19 33 32 34 48 4 45 -85 99 -110 147
-67 15 14 20 13 44 -6 30 -24 53 -17 80 24 21 33 28 32 53 -9 29 -46 51 -53
74 -25 l18 23 37 -43 c32 -36 41 -42 64 -36 14 4 29 16 33 28 6 20 8 20 12 3
3 -10 0 -23 -6 -29 -13 -13 -15 -47 -3 -47 21 0 43 42 62 115 28 110 26 158
-8 209 -37 54 -52 100 -51 145 2 34 2 34 6 6 6 -41 19 -51 32 -27 16 31 69
292 80 402 13 115 27 161 47 153 10 -4 14 3 14 26 0 40 18 40 22 0 l3 -31 150
0 c241 0 369 9 379 25 7 11 20 4 61 -37 28 -28 56 -63 63 -78 11 -27 15 -28
82 -28 l71 0 37 59 c26 41 43 59 56 58 17 -2 20 6 23 63 2 36 9 69 15 75 7 7
9 7 6 0 -3 -5 -2 -19 3 -30 7 -19 8 -19 8 3 1 27 12 28 29 2 18 -29 30 -25 49
15 16 34 47 47 55 24 2 -7 39 -13 97 -15 76 -3 96 -1 105 12 9 12 17 13 40 4
30 -11 66 -5 66 10 0 5 14 4 31 -2 22 -8 34 -7 42 1 19 19 17 43 -4 48 -32 9
-18 36 20 41 21 2 31 0 26 -7 -3 -6 -1 -11 4 -11 6 0 2 -14 -8 -31 -18 -29
-18 -61 0 -85 5 -6 6 -25 3 -41 -3 -17 -2 -33 3 -36 16 -10 113 -16 144 -10
l29 6 0 398 c0 357 -2 399 -16 399 -14 0 -15 13 -8 103 3 56 11 112 15 125 5
13 9 186 8 385 -1 257 -4 352 -11 327 -20 -71 -27 -83 -43 -70 -8 6 -19 36
-26 65 -10 44 -9 64 2 107 19 70 43 76 61 16 l13 -43 3 67 c2 56 -1 73 -18 95
-29 40 -38 145 -17 196 9 20 21 37 26 37 7 0 11 26 11 65 0 37 -4 65 -10 65
-13 0 -13 123 0 136 6 6 10 41 8 80 -3 67 -10 70 -23 11 -4 -20 -11 -27 -23
-25 -27 5 -44 100 -30 166 14 64 33 85 47 51 29 -77 30 -77 30 -1 1 65 -2 76
-21 92 -20 16 -23 29 -27 104 -3 80 -2 86 23 111 21 21 26 35 26 75 0 27 -4
52 -10 55 -13 8 -13 138 0 151 6 6 10 44 8 90 -3 77 -7 77 -23 -1 -6 -30 -30
-33 -45 -5 -32 59 -17 210 21 210 12 0 20 -9 24 -25 16 -79 20 -76 23 15 3 88
1 95 -20 112 -20 15 -23 27 -26 100 -4 89 8 138 33 138 12 0 15 12 15 54 0 30
-4 58 -10 61 -5 3 -10 37 -10 75 0 38 5 72 10 75 7 4 10 337 10 965 l0 959
-72 102 c-40 56 -93 129 -117 163 -24 33 -64 87 -90 118 -80 98 -171 227 -171
242 0 22 -35 60 -48 52 -7 -4 -12 -28 -12 -54 0 -42 -66 -279 -91 -324 -5 -10
-9 -24 -9 -32 0 -12 -53 -181 -151 -476 -49 -149 -64 -207 -81 -332 -6 -43
-15 -78 -19 -78 -5 0 -9 35 -9 78 1 77 15 148 38 189 6 12 12 33 12 47 0 14 5
28 10 31 6 3 10 19 10 35 0 16 4 31 9 35 5 3 13 20 17 37 3 18 10 39 14 48 5
8 13 33 18 55 18 71 51 176 73 230 4 11 20 61 34 110 15 50 32 100 38 112 5
12 11 59 13 105 2 46 6 112 10 147 7 72 -9 79 -20 9 -4 -24 -13 -56 -20 -73
l-14 -30 -10 25 c-5 14 -8 70 -5 125 3 71 1 96 -6 85 -6 -8 -13 -34 -17 -58
-3 -23 -14 -52 -24 -64 -17 -21 -17 -21 -27 -2 -7 13 -6 48 3 112 7 55 9 103
4 115 -9 26 -12 21 -32 -64 -26 -110 -50 -52 -34 83 9 79 2 127 -13 98 -5 -8
-12 -37 -16 -64 -17 -124 -50 -122 -41 3 6 87 -6 145 -19 85 -16 -77 -37 -149
-50 -167 -13 -18 -14 -17 -21 19 -4 20 -2 72 5 113 13 91 14 131 2 131 -10 0
-22 -34 -41 -122 -7 -32 -16 -58 -20 -58 -16 0 -21 73 -9 125 14 62 7 94 -16
75 -8 -7 -15 -24 -15 -39 0 -39 -19 -101 -32 -101 -7 0 -9 29 -4 95 6 82 5 95
-8 95 -9 0 -18 -10 -20 -22 -19 -95 -32 -139 -41 -138 -6 0 -10 35 -10 83 -1
45 -2 88 -3 95 -4 24 -21 12 -27 -20 -29 -150 -41 -161 -36 -34 2 55 -1 86 -9
91 -17 11 -21 2 -30 -62 -4 -32 -13 -71 -19 -88 -9 -24 -10 -12 -5 60 5 96 0
125 -22 125 -15 0 -22 -22 -27 -85 -3 -36 -4 -35 -5 11 -1 27 -8 58 -15 68
-21 28 -38 -2 -43 -78 -4 -61 -24 -122 -36 -111 -3 3 -1 27 5 53 6 26 11 69
11 97 1 41 -2 50 -18 53 -25 5 -35 -14 -38 -73 -1 -46 -2 -47 -5 -10 -8 91
-28 111 -57 58 l-15 -28 -1 32 c0 17 -5 35 -12 39 -18 12 -38 -27 -38 -75 0
-63 -15 -84 -25 -34 -12 64 -47 87 -59 38 -6 -25 -35 -35 -37 -12 -1 22 -27
-57 -29 -88 -2 -31 -4 -28 -14 18 -4 15 -10 27 -15 27 -13 0 -41 -81 -41 -118
0 -36 -40 -165 -49 -157 -3 3 -6 43 -7 88 -2 140 -24 153 -80 47 -22 -42 -43
-70 -52 -70 -9 0 -38 -21 -64 -47 -29 -28 -51 -43 -56 -38 -18 21 -33 98 -27
136 4 22 3 45 -3 52 -5 7 -12 28 -15 47 -4 19 -13 67 -22 105 -9 39 -25 117
-36 175 -28 145 -56 243 -92 323 -20 45 -33 63 -39 55 -4 -7 -5 2 -2 20 6 27
2 38 -18 60 -14 15 -29 44 -32 64 -4 21 -13 43 -20 51 -7 7 -17 23 -20 35 -4
13 -18 33 -31 46 -12 13 -34 44 -47 69 -14 25 -38 61 -54 81 -36 45 -163 176
-170 176 -3 0 -17 9 -32 20 -16 12 -55 28 -88 36 -32 9 -69 22 -81 30 -31 20
-159 19 -179 -1 -9 -8 -28 -15 -43 -15 -15 0 -38 -9 -51 -20 -13 -11 -26 -20
-30 -20 -3 0 -17 -19 -30 -42 -13 -24 -39 -65 -58 -92 -19 -28 -44 -70 -55
-95 -11 -25 -25 -53 -32 -61 -7 -8 -15 -28 -19 -44 -4 -16 -16 -48 -27 -70
-10 -22 -19 -50 -19 -62 0 -13 -4 -26 -10 -29 -5 -3 -10 -23 -10 -43 0 -20
-12 -64 -25 -97 -14 -33 -25 -70 -25 -81 0 -12 -7 -35 -15 -50 -10 -19 -15
-58 -15 -115 0 -71 -3 -89 -19 -103 -17 -16 -19 -16 -25 6 -6 21 -7 21 -17 6
-5 -10 -14 -18 -19 -18 -14 0 -12 54 1 67 15 15 1 36 -20 27 -9 -3 -30 -6 -48
-5 -26 1 -38 -6 -64 -39 -18 -22 -38 -40 -44 -40 -18 0 -63 -53 -70 -83 -6
-21 -12 -26 -26 -22 -16 5 -19 1 -19 -24 0 -16 -4 -32 -9 -36 -21 -12 -20 17
4 91 14 43 25 84 25 92 0 7 4 20 9 30 17 30 43 123 37 129 -8 8 -17 -1 -20
-21 -4 -27 -21 -19 -24 11 -2 15 0 25 4 21 4 -4 13 -3 20 3 10 8 11 14 1 24
-9 9 -16 10 -25 2 -22 -18 -37 10 -39 71 -7 195 -20 350 -30 367 -16 28 -43
114 -43 140 0 11 -5 26 -12 33 -7 7 -16 65 -21 134 -11 152 -11 165 -2 259 6
57 4 94 -8 145 -14 60 -28 149 -42 260 -5 47 4 54 82 56 81 2 75 -6 88 118 7
65 24 201 31 248 4 27 9 33 27 30 21 -3 22 -7 19 -78 -2 -41 -7 -97 -12 -125
-5 -27 -11 -82 -15 -121 l-6 -71 83 -6 c46 -4 145 -7 222 -7 127 0 138 -1 133
-17 -49 -146 -59 -164 -71 -120 -10 37 -7 47 14 47 11 0 20 6 20 13 0 12 -58
15 -178 9 -51 -2 -48 -22 3 -22 45 0 37 -23 -17 -51 -32 -16 -39 -25 -34 -41
3 -12 0 -30 -5 -40 -7 -12 -7 -24 -1 -31 11 -14 12 -25 10 -122 -2 -207 -7
-275 -23 -330 -22 -75 -12 -153 21 -166 20 -7 24 -2 44 64 12 40 34 113 50
162 42 134 60 200 60 227 0 13 4 28 9 33 5 6 14 30 20 55 13 58 6 -118 -15
-335 -7 -82 -14 -194 -14 -247 0 -99 14 -138 25 -71 36 205 83 339 153 438 16
22 55 80 88 129 74 111 130 161 208 184 65 19 80 34 157 161 25 42 50 75 55
75 13 -2 30 -40 68 -147 17 -50 35 -98 39 -105 5 -6 38 -32 75 -56 77 -51 138
-112 210 -211 28 -38 64 -86 80 -105 29 -35 112 -201 112 -224 0 -7 4 -16 9
-21 9 -11 61 -167 106 -325 15 -52 34 -115 41 -140 8 -25 18 -81 24 -125 5
-43 14 -83 19 -88 29 -29 48 52 56 238 6 146 13 191 26 178 16 -16 23 -240 9
-274 -7 -16 -10 -32 -6 -36 11 -11 18 4 26 59 6 44 9 49 15 29 l8 -23 13 23
c7 13 14 33 14 44 1 17 3 15 16 -9 11 -19 14 -42 10 -70 -10 -70 -7 -188 4
-200 3 -2 24 -7 47 -10 44 -5 53 5 53 62 0 12 7 25 16 29 22 8 10 51 -27 89
-53 54 -58 142 -9 154 14 4 32 3 42 -1 11 -6 18 -4 22 7 8 22 8 24 -8 24 -22
0 -28 17 -20 53 6 30 7 31 15 10 8 -23 39 -33 39 -13 0 6 5 10 11 10 5 0 9 -8
8 -17 -1 -10 0 -20 1 -23 1 -3 3 -20 5 -37 3 -40 30 -83 51 -83 8 0 22 -7 31
-15 18 -19 33 -11 33 18 0 12 4 28 9 35 6 11 10 10 16 -5 9 -21 12 -29 14 -43
6 -50 60 114 62 191 l2 44 8 -50 c5 -27 12 -88 15 -134 6 -75 8 -81 20 -60 7
13 10 36 7 50 -5 26 17 59 40 59 7 0 6 -4 -3 -10 -12 -8 -11 -10 6 -10 26 0
65 -41 46 -47 -6 -3 -10 -9 -6 -14 3 -5 0 -9 -5 -9 -14 0 -14 -27 -1 -35 6 -3
14 2 18 12 4 10 14 18 22 18 20 0 50 -34 50 -57 0 -10 5 -18 10 -18 6 0 10 8
10 18 0 9 9 28 20 42 11 14 20 31 20 37 0 7 9 18 20 25 11 7 20 18 20 25 0 19
41 16 56 -4 11 -16 15 -15 48 19 22 22 36 47 36 62 0 28 -15 43 -23 24 -3 -7
-6 -3 -6 10 -1 13 3 20 9 17 6 -3 10 0 10 8 0 8 -6 17 -14 20 -20 8 -29 56
-15 89 6 15 15 28 20 28 5 0 9 12 9 27 0 25 -1 25 -19 9 -34 -31 -61 -1 -61
69 0 33 24 75 43 75 7 0 20 -12 30 -27 l18 -28 -6 54 c-7 64 -32 139 -51 159
-10 10 -13 24 -8 44 4 22 3 28 -5 23 -12 -7 -10 22 5 59 5 14 3 17 -7 14 -8
-2 -15 -15 -17 -29 -2 -13 -7 -33 -12 -44 -5 -11 -27 -63 -50 -117 -43 -101
-51 -111 -113 -146 -64 -37 -88 -36 -131 2 l-37 34 -67 -69 c-79 -81 -102 -86
-174 -39 -37 25 -52 44 -81 108 -85 187 -115 314 -124 539 -4 79 -10 130 -15
127 -6 -4 -8 12 -6 37 l3 43 -63 1 c-69 0 -97 -9 -73 -24 9 -6 10 -11 2 -15
-6 -4 -11 -19 -11 -33 0 -23 -2 -24 -17 -12 -15 13 -16 11 -9 -11 4 -14 9 -52
11 -85 2 -33 1 -46 -2 -30 -2 17 -8 35 -12 40 -5 6 -16 46 -26 90 -9 44 -23
93 -30 110 -8 16 -12 32 -9 37 2 4 59 5 127 4 72 -2 127 0 135 6 7 6 15 28 18
49 7 41 26 51 43 22 8 -14 12 -11 25 21 18 43 21 74 4 38 -26 -53 -50 19 -28
81 11 30 15 50 38 177 6 30 16 68 22 85 l11 30 18 -24 18 -24 7 36 c9 48 25
56 48 24 28 -38 38 -33 38 18 l0 45 -1324 0 c-1043 0 -1326 -3 -1330 -13 -5
-9 -7 -9 -12 1 -4 9 -111 12 -485 12 l-479 0 0 -33z m1049 -84 c4 -37 4 -85 0
-105 -6 -39 -2 -51 12 -42 5 3 9 24 9 47 0 42 43 147 53 131 12 -20 30 -282
22 -329 l-8 -50 -14 34 c-11 27 -17 32 -24 20 -6 -9 -8 9 -5 54 4 68 -6 96
-20 55 -4 -13 -7 -32 -5 -43 4 -25 -7 -16 -12 11 -2 10 -9 30 -15 44 -10 24
-11 24 -11 3 -1 -14 -7 -23 -17 -23 -13 0 -15 6 -10 28 4 15 8 41 10 59 l4 32
-23 -27 -23 -27 -8 29 c-4 16 -2 43 5 61 6 17 11 41 11 52 0 12 8 23 20 26 13
3 20 14 20 28 0 17 3 20 11 12 7 -7 15 -42 18 -80z m-294 7 c0 -33 -2 -35 -32
-32 -45 4 -59 -23 -77 -145 -9 -55 -20 -113 -26 -128 -5 -14 -10 -37 -10 -49
0 -13 -7 -29 -15 -36 -8 -7 -15 -21 -15 -31 0 -10 -11 -29 -25 -43 -14 -14
-25 -35 -25 -46 0 -23 -45 -74 -58 -66 -4 2 -9 -7 -10 -22 -2 -29 -32 -95 -45
-100 -4 -2 -5 -19 -1 -38 5 -27 3 -34 -10 -34 -9 0 -16 -4 -16 -10 0 -5 -4
-10 -10 -10 -15 0 -12 109 5 170 9 30 20 91 26 134 14 106 23 126 48 119 17
-4 21 -13 21 -45 0 -34 2 -39 15 -28 8 6 18 9 23 6 5 -3 2 45 -5 107 -8 62
-12 130 -11 152 l3 40 14 -27 c21 -42 31 -34 31 23 0 50 1 51 26 45 32 -8 54
8 54 40 0 13 8 39 17 59 16 34 19 36 63 33 44 -3 45 -4 45 -38z m845 -78 c5
-38 12 -77 16 -86 8 -21 24 -21 24 2 0 9 7 56 17 104 14 78 19 87 41 93 14 3
28 2 32 -2 13 -15 30 -76 30 -110 0 -43 31 -117 37 -90 3 10 0 47 -6 81 -15
87 -14 116 4 116 9 0 15 -9 15 -25 0 -14 4 -44 10 -67 5 -24 12 -60 15 -81 9
-57 31 -31 40 45 9 75 28 133 44 132 6 -1 19 -2 29 -2 24 -2 52 -116 33 -135
-16 -16 -31 7 -31 48 0 17 -4 36 -9 44 -6 10 -14 -11 -25 -65 -20 -98 -34
-168 -41 -216 -3 -21 -11 -40 -17 -44 -13 -8 -28 14 -28 44 0 33 -17 27 -24
-9 -7 -36 -28 -35 -38 2 -4 13 -14 65 -23 114 -30 172 -46 201 -59 108 -3 -26
-10 -68 -15 -93 -33 -173 -42 -192 -62 -147 -15 34 -25 34 -33 2 -15 -59 -33
-15 -61 145 -9 52 -21 111 -26 131 -13 51 -11 69 6 69 15 0 25 -30 45 -148 8
-40 18 -76 23 -79 10 -6 4 114 -9 174 -3 18 -3 41 1 50 11 29 33 -24 45 -105z
m1594 103 c37 -37 56 -182 36 -276 -19 -90 -52 -123 -105 -103 -63 24 -77 321
-18 380 19 19 68 18 87 -1z m91 -42 c3 -27 10 -58 16 -71 5 -13 9 -41 9 -62 0
-22 4 -40 10 -40 12 0 30 34 30 58 0 47 33 162 46 162 16 0 17 -26 3 -90 -5
-25 -14 -70 -19 -100 -24 -138 -35 -175 -52 -178 -12 -2 -18 3 -18 15 0 10 -6
43 -14 73 -7 30 -19 89 -26 130 -6 41 -16 88 -21 104 -10 31 -5 46 16 46 9 0
16 -17 20 -47z m-2380 -2139 c21 -34 47 -64 56 -64 5 0 17 9 26 20 10 11 21
20 26 20 16 0 45 -86 57 -170 6 -47 16 -110 22 -140 11 -56 12 -140 2 -173 -5
-15 -8 -16 -21 -5 -12 10 -15 9 -13 -7 3 -30 -11 -65 -26 -65 -8 0 -25 -24
-40 -52 -14 -29 -35 -63 -47 -75 -11 -13 -17 -23 -13 -23 4 0 2 -9 -4 -20 -6
-11 -18 -20 -26 -20 -12 0 -15 -6 -10 -24 3 -13 0 -35 -7 -48 -37 -70 -69 -90
-86 -52 -10 22 -9 24 19 24 27 0 30 3 30 30 0 20 -10 41 -30 62 -33 34 -33 55
1 89 21 21 25 44 8 54 -21 14 -4 40 26 40 42 0 43 25 4 101 -27 54 -31 69 -23
96 5 18 19 37 31 42 17 8 20 16 16 43 -4 26 -2 33 10 33 25 0 29 16 11 53 -19
39 -13 70 11 61 9 -4 17 1 21 11 8 20 -52 84 -78 85 -10 0 -19 8 -20 18 -2 23
-5 46 -8 52 -12 33 -7 37 29 29 20 -4 41 -15 46 -25z m-161 -70 c25 -10 19
-52 -14 -93 -17 -21 -30 -42 -29 -47 1 -5 0 -12 -1 -16 -4 -12 -7 -27 -9 -37
0 -5 -14 -14 -31 -20 -21 -7 -30 -17 -30 -31 0 -28 -40 -84 -62 -88 -30 -5
-24 62 6 82 18 11 26 27 28 53 2 30 9 41 30 51 23 11 26 17 21 43 -4 20 -1 35
10 47 9 9 25 27 37 40 22 25 22 24 44 16z m3165 -376 c-6 -24 -21 -66 -34 -94
-14 -28 -25 -56 -25 -62 0 -6 -6 -17 -13 -24 -11 -12 -19 -33 -49 -143 -6 -22
-17 -44 -25 -48 -7 -4 -13 -13 -13 -20 0 -11 -19 -53 -57 -129 -7 -14 -13 -33
-13 -41 0 -8 -9 -34 -20 -58 -13 -29 -20 -66 -20 -110 0 -80 -10 -159 -20
-159 -12 0 -30 75 -30 127 0 59 15 109 36 117 8 3 14 13 14 23 0 10 11 40 25
67 14 27 25 57 25 65 0 9 14 43 30 76 16 33 30 69 30 81 0 11 7 29 15 40 8 10
15 28 15 40 0 11 11 35 25 54 14 19 25 40 25 47 0 7 5 22 10 33 6 11 15 29 20
40 6 11 10 30 10 44 0 19 33 76 45 76 1 0 -1 -19 -6 -42z m291 -70 c0 -7 -7
-26 -15 -42 -8 -15 -15 -36 -15 -45 0 -9 -11 -38 -25 -65 -14 -27 -25 -56 -25
-64 0 -8 -8 -31 -18 -51 -53 -104 -72 -148 -72 -162 0 -8 -4 -19 -8 -24 -4 -6
-16 -35 -27 -65 -10 -30 -28 -75 -40 -100 -17 -34 -24 -71 -29 -150 -4 -58
-10 -123 -13 -145 l-6 -40 -8 30 c-5 17 -10 73 -11 126 -3 91 -2 97 25 128 15
18 27 44 27 57 0 24 2 31 34 91 9 17 16 38 16 47 0 19 32 90 43 94 4 2 7 11 7
19 0 18 76 198 97 228 7 11 13 28 13 39 0 28 31 106 41 106 5 0 9 -6 9 -12z
m-560 -251 c0 -7 -7 -22 -15 -33 -8 -10 -15 -26 -15 -35 0 -20 -23 -69 -32
-69 -5 0 -8 -11 -8 -24 0 -13 -7 -29 -15 -36 -8 -7 -15 -27 -15 -45 0 -18 -7
-38 -15 -45 -15 -13 -22 -50 -30 -180 -6 -86 -20 -124 -36 -98 -13 20 -11 186
2 211 7 11 20 30 30 41 11 11 19 32 19 46 0 14 7 35 15 46 8 10 15 27 15 36 0
10 15 46 34 80 18 35 36 75 40 91 6 27 26 38 26 14z m210 -13 c0 -3 -6 -18
-14 -32 -8 -15 -28 -73 -46 -129 -17 -57 -37 -106 -44 -110 -20 -13 -36 -86
-37 -174 -1 -86 -10 -141 -21 -124 -3 6 -11 43 -17 83 -12 78 -1 149 26 159 7
3 13 9 13 15 0 5 9 29 20 52 11 24 22 63 26 87 4 24 22 69 40 100 19 31 34 62
34 68 0 6 5 11 10 11 6 0 10 -3 10 -6z m70 -11 c0 -10 -7 -27 -15 -37 -8 -11
-15 -30 -15 -42 0 -12 -16 -52 -35 -88 -19 -37 -35 -72 -35 -80 0 -7 -8 -28
-17 -47 -13 -24 -19 -63 -21 -129 -4 -155 -20 -184 -42 -80 -15 72 -9 134 19
171 12 16 21 37 21 48 0 11 4 22 9 25 4 3 16 27 25 53 63 174 85 223 98 223 5
0 8 -8 8 -17z m-529 -291 c-16 -29 -14 -32 15 -32 l26 0 -6 -92 c-7 -99 -23
-178 -37 -178 -4 0 -10 19 -13 43 -12 88 -13 90 -16 22 -1 -38 -5 -81 -9 -95
l-7 -25 -6 25 c-25 98 -20 260 8 260 9 0 14 11 14 30 0 17 5 30 10 30 6 0 10
12 10 27 0 20 3 24 11 16 8 -8 8 -17 0 -31z m1621 -43 c46 -128 63 -198 50
-211 -17 -17 -42 -1 -42 28 0 35 -31 134 -42 134 -13 0 -9 -53 7 -80 16 -28
20 -90 6 -90 -18 0 -33 31 -52 102 -22 84 -24 130 -8 161 30 57 48 47 81 -44z
m-462 -861 c13 -24 60 -92 105 -153 45 -60 96 -131 114 -158 18 -26 43 -55 57
-63 26 -18 32 -34 10 -34 -28 0 -99 70 -163 161 -37 51 -91 122 -120 157 -50
60 -67 105 -46 125 12 13 19 7 43 -35z m541 -4787 l84 -70 1 -183 c1 -153 -1
-186 -14 -201 -15 -16 -37 -18 -275 -16 -210 1 -259 4 -264 15 -3 8 15 76 40
152 60 184 74 230 82 275 4 20 9 37 12 37 2 0 17 -9 32 -21 l29 -21 56 41 c58
43 89 59 118 60 9 1 54 -30 99 -68z m-3848 -604 c10 -12 21 -17 25 -11 14 19
61 36 85 30 24 -6 64 -53 54 -63 -3 -2 -15 2 -26 9 -30 19 -52 1 -76 -61 -11
-28 -23 -51 -26 -51 -4 0 -14 17 -22 39 -26 64 -96 105 -111 65 -4 -9 -9 -15
-12 -12 -8 8 16 62 33 76 21 15 52 7 76 -21z m982 -57 c15 -17 16 -20 3 -20
-23 0 -75 -64 -109 -133 -16 -34 -41 -72 -54 -85 -14 -13 -32 -34 -41 -47 -15
-23 -18 -23 -37 -10 -51 36 -98 -2 -129 -102 -15 -49 -29 -54 -52 -18 -9 13
-30 28 -48 33 -23 6 -34 16 -39 36 -16 59 -52 78 -103 55 -20 -10 -32 -8 -62
6 -35 17 -37 16 -65 -4 -15 -12 -31 -21 -34 -21 -12 0 -4 48 10 53 19 8 67 85
60 97 -4 6 1 10 10 10 9 0 14 -4 11 -9 -3 -5 0 -11 8 -14 8 -3 17 2 21 11 6
15 8 15 21 -2 8 -11 14 -15 14 -9 0 6 9 13 21 16 16 4 18 3 8 -9 -9 -11 -8
-14 9 -14 15 0 19 5 15 19 -3 14 2 21 18 26 42 14 77 47 83 79 4 21 15 35 33
44 34 15 44 5 47 -47 2 -47 24 -69 71 -73 17 -1 39 -3 50 -4 11 -1 28 -2 37
-3 9 -1 19 -9 21 -18 4 -15 6 -14 12 5 4 13 13 21 21 18 16 -6 54 65 54 102 0
21 7 31 28 39 42 17 67 15 87 -7z m-1114 -122 c-7 -40 -17 -89 -22 -109 -5
-20 -9 -46 -9 -57 0 -31 -19 -37 -44 -13 -33 31 -73 28 -94 -9 -9 -16 -23 -30
-31 -30 -19 0 -5 51 20 72 20 17 51 98 46 120 -1 6 11 14 27 19 31 9 50 -3 59
-37 4 -15 5 -14 6 6 1 27 42 122 50 115 2 -3 -1 -38 -8 -77z m2219 35 c0 -23
-49 -253 -56 -265 -3 -5 -19 3 -36 17 -16 14 -34 25 -40 25 -15 0 -78 -69 -78
-86 0 -22 -18 -17 -31 9 -20 39 -62 77 -86 77 -13 0 -32 -9 -43 -20 -11 -11
-24 -20 -30 -20 -15 0 -12 36 5 50 8 7 20 30 26 51 10 32 15 37 30 29 24 -13
29 -13 29 5 0 8 7 15 16 15 8 0 12 -4 9 -10 -12 -19 114 -16 128 3 6 9 10 9
14 0 7 -20 23 -15 23 7 0 13 -5 18 -15 14 -11 -5 -15 1 -15 20 0 14 3 26 6 26
8 0 29 -22 42 -45 11 -19 11 -18 12 8 0 15 5 27 11 27 7 0 9 -9 6 -23 -4 -12
-2 -28 2 -36 6 -9 11 -1 15 26 14 73 56 146 56 96z m-3205 -42 c42 -24 65 -74
65 -144 0 -56 -1 -58 -34 -72 l-34 -14 -5 -103 c-8 -159 -51 -367 -94 -451
-31 -62 -48 -53 -38 22 12 100 36 334 42 418 6 81 5 83 -19 92 -32 12 -48 66
-48 163 0 76 8 95 50 111 22 9 81 -2 115 -22z m2668 -12 c59 -39 69 -65 70
-194 2 -137 -4 -148 -106 -171 -36 -9 -68 -21 -70 -28 -9 -22 62 -148 110
-198 52 -53 52 -70 4 -128 -27 -32 -31 -33 -53 -21 -12 7 -40 35 -61 62 -21
27 -42 49 -46 49 -5 0 -11 -23 -13 -51 -5 -48 -21 -80 -34 -67 -24 25 -21 219
7 463 14 120 15 166 4 207 -12 46 1 74 42 92 48 20 100 15 146 -15z m-1572 -1
c18 -33 5 -158 -36 -353 -55 -258 -58 -405 -10 -405 18 0 19 -9 5 -44 -16 -44
-44 -33 -71 27 -20 44 -24 72 -27 182 -2 72 1 164 8 205 17 113 71 373 81 393
13 23 36 21 50 -5z m170 0 c17 -32 12 -119 -17 -253 -14 -66 -29 -142 -34
-170 -5 -27 -14 -77 -19 -110 -12 -66 -14 -174 -5 -199 3 -9 12 -16 19 -16 22
0 28 -19 15 -51 -25 -60 -65 -24 -90 82 -13 60 -9 302 8 394 10 56 57 276 67
318 9 33 39 36 56 5z m-539 -156 c-2 -92 -9 -167 -18 -202 -41 -147 -152 -420
-171 -420 -26 0 -38 45 -39 150 -1 58 -4 200 -8 315 -6 210 2 281 27 272 11
-3 15 -56 26 -327 1 -36 16 -69 25 -59 3 3 19 52 36 110 32 107 88 293 96 318
4 11 7 12 17 2 9 -9 11 -54 9 -159z m2578 108 c14 -34 8 -109 -22 -250 -70
-336 -79 -476 -33 -494 20 -7 19 -50 0 -66 -13 -10 -19 -10 -35 5 -66 60 -71
338 -11 610 5 22 16 75 24 117 18 90 32 119 51 112 8 -3 20 -18 26 -34z
m-1209 -42 c-13 -50 -14 -75 -6 -178 5 -64 3 -80 -14 -110 -40 -71 -53 -105
-67 -184 -19 -108 -18 -115 6 -109 12 3 22 -1 26 -11 8 -20 -17 -98 -33 -103
-7 -3 -25 20 -40 49 -26 50 -28 61 -30 188 -1 74 -5 163 -8 198 -9 81 -2 108
32 124 20 10 34 31 53 80 42 112 109 157 81 56z m-663 -190 c14 -14 16 -90 3
-116 -44 -87 -72 -162 -69 -182 2 -15 14 -30 31 -38 33 -16 34 -31 5 -100 -25
-60 -56 -76 -88 -47 -61 56 -54 245 17 405 37 84 70 109 101 78z m122 -24 c7
-19 9 -45 6 -57 -3 -12 -1 -29 4 -36 7 -12 12 -12 34 2 35 23 55 21 62 -7 7
-31 -1 -315 -11 -338 -7 -18 -42 -34 -53 -24 -3 4 -11 41 -16 84 -6 42 -16 76
-21 75 -6 0 -19 -25 -30 -54 -20 -52 -47 -74 -58 -46 -10 25 20 406 33 422 20
24 38 17 50 -21z m302 -5 c10 -20 19 -53 19 -75 2 -55 -12 -377 -16 -391 -9
-27 -33 1 -45 53 -7 30 -17 57 -21 60 -4 2 -24 -22 -44 -55 -45 -73 -65 -72
-65 3 0 57 18 148 49 246 12 36 21 71 21 78 0 7 12 38 26 68 30 64 48 67 76
13z m357 17 c34 -37 51 -104 40 -162 -28 -143 -69 -262 -105 -302 -23 -26 -24
-27 -39 -8 -18 23 -18 60 -5 232 12 144 21 184 50 232 24 38 30 39 59 8z
m-1322 2 c26 -34 35 -105 24 -194 -6 -49 -11 -135 -11 -192 0 -92 -2 -103 -17
-100 -11 2 -23 22 -33 55 -8 28 -18 55 -21 58 -4 3 -24 -21 -44 -54 -30 -49
-41 -59 -51 -50 -8 6 -14 28 -14 48 0 52 25 179 45 231 9 25 20 63 25 85 22
104 65 154 97 113z m2011 -24 c17 -12 22 -25 22 -60 0 -24 -4 -52 -10 -62 -5
-9 -25 -52 -45 -96 -34 -74 -35 -80 -20 -102 8 -13 22 -24 31 -24 24 0 27 -26
8 -77 -24 -66 -33 -74 -68 -71 -49 5 -69 51 -68 157 1 112 50 277 100 334 19
21 22 21 50 1z m188 -2 c7 -4 20 -35 29 -70 15 -52 16 -71 6 -119 -6 -31 -11
-111 -11 -177 0 -133 -8 -164 -33 -125 -8 13 -18 41 -21 61 -4 21 -11 40 -16
43 -5 3 -26 -19 -46 -50 -39 -59 -54 -64 -64 -24 -8 27 13 170 30 207 5 13 10
33 10 45 0 13 4 27 8 33 5 5 14 34 21 64 15 61 46 120 64 120 7 0 17 -4 23 -8z
m-2906 -30 c0 -15 -4 -42 -10 -60 -5 -19 -12 -72 -16 -119 -8 -100 4 -105 32
-15 30 97 52 142 70 142 15 0 16 -9 11 -82 -4 -46 -7 -140 -7 -210 0 -122 -1
-128 -21 -128 -15 0 -25 13 -41 50 -11 28 -24 50 -27 50 -4 0 -17 -13 -29 -30
-28 -37 -49 -38 -64 -4 -9 20 -9 63 0 186 13 164 18 187 56 225 29 30 46 28
46 -5z"/>
<path d="M9834 11852 c-37 -24 -49 -170 -18 -217 40 -61 88 -9 88 94 1 93 -31
150 -70 123z"/>
<path d="M10370 11992 c0 -4 9 -15 20 -25 11 -9 20 -28 20 -41 0 -19 4 -23 20
-19 13 3 22 -1 26 -11 4 -10 13 -14 23 -11 14 4 20 -6 30 -47 22 -86 30 -89
31 -11 0 81 13 103 60 103 46 0 60 -10 60 -41 0 -25 -4 -29 -28 -29 -40 0 -65
-21 -60 -51 2 -19 10 -25 35 -27 25 -3 34 -9 39 -28 9 -37 -2 -54 -35 -54 -37
0 -45 -12 -37 -56 6 -29 11 -34 34 -34 16 0 33 -5 40 -12 17 -17 15 -55 -4
-62 -27 -10 -79 -7 -92 6 -10 10 -14 10 -21 0 -5 -9 -42 -12 -135 -10 -119 1
-128 3 -136 22 -8 20 -9 19 -9 -5 -1 -14 5 -33 12 -43 13 -18 47 -21 142 -14
11 1 55 1 98 0 78 -2 79 -2 90 -32 l12 -31 70 6 c38 3 95 8 126 11 42 3 59 1
68 -10 11 -12 58 -14 319 -11 376 5 432 10 432 36 0 11 10 23 24 28 13 5 26
17 29 25 9 23 38 20 44 -4 7 -27 27 -20 31 10 3 17 0 21 -12 17 -14 -6 -16 4
-16 68 0 85 -14 100 -24 26 -13 -100 -83 -136 -127 -65 -41 68 -36 297 8 346
29 32 92 19 106 -22 3 -9 6 -4 6 11 2 53 -49 84 -106 65 -19 -6 -23 -4 -23 13
0 21 0 21 -595 21 -327 0 -595 -3 -595 -8z m762 -80 c7 -26 -9 -62 -27 -62
-13 0 -15 -21 -15 -142 0 -79 -4 -149 -9 -156 -16 -25 -21 16 -21 159 l0 139
-25 10 c-27 10 -33 38 -13 58 7 7 33 12 59 12 36 0 48 -4 51 -18z m142 -1 c44
-48 60 -201 31 -298 -19 -64 -44 -87 -85 -78 -46 10 -63 52 -68 167 -5 113 0
150 28 196 23 38 66 44 94 13z m230 13 c10 -4 16 -18 16 -35 0 -26 -3 -29 -33
-29 -57 0 -72 -28 -71 -125 2 -95 18 -130 61 -130 49 0 57 -64 9 -73 -65 -13
-97 42 -101 173 -5 153 19 225 74 225 16 0 36 -3 45 -6z m-781 -46 c9 -24 22
-65 30 -93 8 -27 18 -50 23 -50 5 0 10 40 12 88 2 64 6 87 15 84 8 -2 13 -45
15 -143 5 -229 -15 -265 -63 -114 -16 49 -32 87 -37 84 -4 -3 -8 -48 -8 -100
0 -56 -4 -94 -10 -94 -5 0 -10 19 -11 43 -1 23 -3 92 -5 152 -4 114 2 185 16
185 4 0 14 -19 23 -42z m217 25 c1 -5 5 -28 10 -53 6 -25 14 -65 19 -90 5 -25
16 -82 26 -128 10 -46 15 -86 11 -89 -11 -11 -36 19 -36 43 0 24 -31 64 -49
64 -19 0 -41 -32 -41 -59 0 -16 -7 -34 -15 -41 -28 -23 -28 16 0 147 15 71 29
142 32 158 2 17 6 36 8 43 5 13 35 17 35 5z"/>
<path d="M11196 11827 c-22 -47 -22 -164 0 -195 26 -37 64 -26 81 23 41 114
-33 271 -81 172z"/>
<path d="M843 11842 c-5 -15 -6 -47 -2 -72 11 -66 10 -133 -1 -150 -9 -13 -14
-11 -34 13 -20 25 -24 26 -30 12 -3 -9 -6 -28 -6 -41 0 -14 -6 -27 -14 -30
-16 -6 -17 -18 -17 -124 0 -47 -7 -98 -19 -135 -10 -33 -24 -111 -31 -173 -6
-62 -15 -114 -19 -117 -3 -2 -12 39 -20 91 -12 93 -24 121 -34 87 -3 -10 -8
-117 -11 -238 -3 -121 -8 -230 -11 -242 -7 -35 -21 -27 -28 16 -6 42 -31 70
-46 55 -5 -5 -14 -102 -20 -216 -7 -144 -15 -217 -26 -243 -15 -38 -28 -38
-36 0 -2 11 -8 -63 -12 -165 -4 -102 -11 -189 -16 -193 -12 -13 -21 9 -27 68
-6 55 -17 71 -27 38 -2 -10 -8 -63 -11 -118 -7 -100 -16 -131 -43 -151 -10 -7
-15 -43 -19 -140 -5 -158 -9 -180 -27 -165 -19 16 -23 -12 -37 -269 -10 -176
-16 -225 -28 -238 -11 -10 -20 -53 -28 -131 -6 -64 -17 -154 -22 -201 -6 -47
-13 -128 -17 -180 -3 -52 -12 -121 -20 -152 -12 -46 -13 -70 -5 -115 15 -78
14 -240 0 -245 -8 -3 -11 -34 -10 -97 1 -59 -2 -98 -9 -107 -12 -14 -11 -28
11 -147 10 -55 10 -72 -1 -92 -11 -21 -11 -37 4 -105 10 -47 19 -145 22 -238
5 -155 12 -215 40 -342 16 -73 41 -220 54 -325 10 -69 41 -239 60 -323 6 -23
10 -61 10 -85 0 -35 17 -139 69 -417 21 -111 94 -432 115 -505 13 -44 31 -114
41 -155 20 -82 40 -130 55 -130 5 0 22 -13 37 -30 30 -34 39 -36 64 -14 15 13
24 15 46 6 16 -6 56 -14 91 -17 60 -7 64 -9 88 -46 13 -21 29 -61 35 -89 6
-27 15 -50 21 -50 6 0 8 7 4 15 -7 19 12 62 31 69 24 9 48 -77 58 -204 4 -47
15 -123 25 -170 18 -84 35 -237 32 -295 -8 -156 -11 -599 -4 -630 l8 -40 17
31 c22 43 45 108 62 173 7 29 18 56 23 60 6 4 16 26 21 49 6 23 16 61 22 85 5
23 18 60 28 82 41 90 51 117 51 138 0 26 16 54 26 45 8 -9 -29 -160 -61 -248
-13 -36 -38 -112 -55 -170 -17 -58 -38 -126 -46 -152 -8 -26 -14 -62 -14 -81
0 -19 -7 -48 -15 -63 -20 -39 -19 -72 5 -117 23 -42 25 -57 9 -57 -19 0 -38
33 -39 63 0 20 -8 33 -32 47 -18 11 -44 39 -57 64 -13 25 -30 46 -38 48 -12 3
-78 118 -165 291 -17 34 -88 117 -100 117 -18 0 39 -153 60 -162 11 -4 45 -80
67 -148 9 -30 24 -70 33 -89 15 -31 15 -34 -3 -47 -11 -7 -28 -21 -37 -30 -12
-11 -36 -18 -69 -19 -41 -2 -57 3 -80 23 -29 23 -59 24 -59 1 0 -7 -9 -9 -24
-5 -14 3 -36 2 -50 -4 -16 -6 -28 -6 -31 0 -12 20 -72 40 -110 37 l-40 -2 -1
155 c0 165 -6 200 -33 200 -20 0 -71 -82 -97 -155 -9 -27 -25 -59 -34 -70 -9
-11 -32 -43 -50 -72 -30 -48 -37 -53 -79 -58 -25 -4 -53 -9 -61 -11 -34 -9
-40 -74 -40 -459 0 -411 0 -411 56 -337 16 20 36 45 45 55 9 10 24 36 34 57
10 22 23 40 29 40 6 0 21 16 34 35 12 19 30 35 39 35 9 0 25 8 36 17 25 24
226 29 272 8 51 -23 102 -28 330 -31 215 -2 324 -11 416 -34 38 -9 58 -9 110
4 35 9 89 17 119 18 30 2 58 8 62 13 4 6 8 27 8 49 0 29 -3 37 -15 33 -22 -9
-28 10 -13 49 8 22 9 38 3 42 -6 4 -32 52 -60 107 -27 55 -57 109 -67 119 -9
10 -27 39 -39 65 -11 25 -28 50 -37 57 -9 6 -11 13 -5 17 6 4 42 -27 81 -68
66 -69 74 -74 92 -63 19 12 24 9 48 -20 31 -36 52 -42 52 -12 0 25 19 26 26 3
47 -149 33 -11 -21 217 -20 85 -39 166 -42 180 -15 86 -13 85 -127 30 -82 -39
-101 -53 -121 -94 -9 -17 -18 -20 -47 -18 -33 3 -38 0 -53 -32 -10 -20 -21
-36 -26 -36 -12 0 -11 6 5 38 7 15 16 49 20 76 3 26 15 76 26 110 10 33 21 72
24 86 3 14 12 34 19 45 13 16 17 17 31 6 9 -7 16 -10 16 -5 0 4 11 -3 24 -15
14 -13 29 -21 34 -17 5 3 17 27 26 53 10 26 30 75 46 108 28 59 37 85 60 173
6 23 15 40 20 37 6 -4 11 8 11 24 2 50 3 54 16 58 6 2 13 -6 15 -19 2 -13 11
-24 22 -26 17 -4 18 1 11 75 -8 88 -22 122 -60 147 -15 10 -33 32 -42 49 -22
48 -54 98 -99 159 -70 91 -124 112 -134 53 -5 -26 -7 -27 -13 -11 -5 13 -2 25
7 35 14 13 12 18 -20 47 -19 18 -43 34 -52 36 -9 2 -21 13 -27 25 -14 33 -35
37 -35 8 0 -13 -5 -27 -10 -30 -6 -4 -8 -10 -5 -15 5 -8 -23 -37 -28 -29 -13
20 -47 121 -49 149 -2 26 -11 40 -37 57 -19 13 -42 23 -52 23 -10 0 -40 13
-66 29 -64 39 -94 43 -183 27 -69 -13 -76 -12 -93 4 -10 9 -23 35 -28 56 -12
53 -34 417 -26 438 6 15 11 14 41 -9 28 -21 38 -24 55 -16 11 6 28 11 38 11
23 1 96 97 119 156 9 24 23 44 30 44 21 0 25 32 14 106 -17 117 -38 188 -41
138 -1 -10 -3 -58 -5 -106 -4 -100 -24 -153 -83 -217 -32 -34 -44 -41 -77 -41
-21 -1 -50 -7 -64 -15 -14 -8 -37 -14 -52 -15 -23 0 -28 4 -28 23 1 12 7 33
15 47 22 39 18 66 -13 88 -23 17 -30 32 -40 91 -14 85 -15 355 -1 426 6 28 13
83 16 123 3 39 10 72 15 72 7 0 8 -36 3 -107 -18 -238 -7 -398 25 -378 4 3 11
-14 15 -37 10 -59 32 -100 53 -96 27 5 59 82 67 159 4 38 4 73 1 76 -3 4 -18
-4 -32 -18 l-26 -24 4 77 c3 78 21 121 33 82 4 -10 13 -34 21 -53 l15 -34 21
21 c18 18 22 34 22 94 l1 73 -35 5 c-29 4 -38 12 -55 48 -11 23 -25 42 -32 42
-7 0 -15 10 -17 23 -3 12 -10 50 -17 85 -10 52 -19 70 -48 98 -20 18 -41 34
-47 34 -15 0 -54 -92 -54 -127 1 -25 2 -26 14 -10 7 9 16 17 20 17 13 0 5
-151 -11 -212 -12 -47 -17 -106 -17 -233 0 -149 3 -177 22 -230 12 -33 22 -73
24 -90 4 -58 -2 -115 -12 -115 -17 0 -55 99 -74 190 -9 47 -22 101 -27 121
-13 50 -11 379 2 453 21 119 33 172 51 225 10 30 18 71 18 91 0 20 11 64 25
98 14 34 25 69 25 77 0 9 13 44 30 79 24 51 35 65 57 69 15 3 31 3 35 1 17
-11 67 -115 82 -173 10 -35 27 -84 38 -110 18 -40 21 -43 28 -26 14 32 11 118
-5 171 -8 27 -17 76 -20 109 -7 73 -20 133 -50 245 -31 113 -61 296 -81 505
-16 168 -16 215 7 415 5 47 14 164 19 260 6 96 14 210 18 254 10 103 -11 322
-37 400 -12 33 -21 75 -21 95 0 47 -10 82 -21 75 -5 -3 -9 2 -9 10 0 9 4 16 9
16 10 0 75 130 96 195 16 48 26 66 60 110 13 16 19 18 35 7 18 -11 20 -10 20
11 0 31 26 54 71 62 28 5 45 18 73 54 20 27 36 51 36 56 0 4 18 32 40 64 37
53 40 61 40 126 0 69 -1 70 -34 92 -26 17 -47 22 -85 20 -28 -1 -51 -6 -51
-12 0 -5 -5 -3 -10 5 -15 23 -1 120 25 170 12 25 42 102 65 172 37 111 48 133
91 180 27 29 51 61 55 71 6 18 4 18 106 2 20 -3 39 -12 42 -20 3 -8 14 -15 24
-15 16 0 20 11 27 68 12 107 11 117 -5 118 -36 3 -40 5 -40 27 0 13 9 42 20
65 19 40 26 72 15 72 -3 0 -16 -12 -29 -27 -27 -31 -56 -26 -56 9 1 13 14 48
30 77 29 53 32 77 8 53 -21 -21 -38 -13 -38 16 0 15 16 67 35 116 19 49 33 91
30 94 -9 9 -31 -17 -55 -64 -22 -45 -24 -46 -32 -24 -5 13 -6 36 -3 51 5 21 1
33 -16 50 -19 19 -21 28 -15 83 4 33 12 76 17 93 9 28 6 41 -17 90 -15 32 -31
76 -35 98 -7 37 -12 60 -25 124 -5 22 -6 22 -23 7 -29 -26 -34 -19 -28 42 4
37 3 50 -3 36 -12 -29 -28 -38 -44 -25 -18 15 -21 5 -37 -112 -7 -53 -16 -94
-21 -91 -4 3 -8 57 -8 120 0 76 -4 114 -11 114 -6 0 -13 -9 -16 -20 -3 -11 -8
-20 -11 -20 -10 0 -31 35 -32 52 0 29 -18 29 -27 0z"/>
<path d="M1527 11852 c-6 -8 -19 -11 -35 -8 -39 8 -53 -5 -63 -60 -18 -94 4
-150 61 -156 36 -3 40 -1 40 19 0 13 -8 24 -20 28 -11 3 -22 17 -25 31 -3 13
-7 35 -10 49 -5 22 -1 26 26 32 34 6 42 19 37 55 -2 17 -5 19 -11 10z"/>
<path d="M1660 11840 c-19 -12 -27 -167 -11 -199 15 -27 46 -27 65 1 21 30 21
139 1 178 -16 31 -30 36 -55 20z"/>
<path d="M4846 11241 l7 -42 -29 7 c-16 4 -32 12 -36 17 -11 18 -30 -75 -30
-143 1 -87 -4 -101 -32 -94 -17 4 -25 -1 -36 -23 -8 -15 -21 -34 -28 -42 -10
-10 -14 -50 -13 -150 1 -241 -3 -279 -27 -302 -13 -11 -20 -25 -17 -30 4 -5 2
-24 -4 -42 -11 -32 -7 -52 43 -227 9 -30 16 -70 16 -90 l0 -35 -25 29 c-14 16
-25 37 -25 46 0 9 -9 27 -20 40 -11 13 -20 28 -20 34 0 22 -51 86 -68 86 -9 0
-28 16 -41 36 -32 46 -55 58 -80 42 -16 -10 -23 -9 -39 5 -27 25 -32 12 -16
-41 14 -44 13 -48 -8 -76 -14 -20 -17 -31 -10 -34 18 -6 14 -23 -10 -44 l-22
-19 22 -6 c12 -3 22 -11 22 -18 0 -15 55 -39 69 -30 6 3 11 2 11 -4 0 -20 52
-86 65 -83 7 1 16 -2 20 -8 3 -5 1 -10 -4 -10 -6 0 -11 -9 -11 -20 0 -11 7
-20 15 -20 33 0 64 -123 44 -177 -7 -18 -3 -23 22 -32 17 -6 42 -8 57 -5 38 8
102 -21 102 -46 0 -13 -7 -20 -19 -20 -10 0 -34 -10 -52 -23 -19 -13 -39 -22
-45 -20 -6 2 -16 -8 -22 -23 -11 -23 -16 -25 -50 -19 -24 4 -43 1 -55 -7 -22
-16 -14 -44 14 -53 11 -4 19 -15 19 -28 0 -20 0 -20 14 -2 12 16 16 17 30 6
20 -17 21 -61 1 -61 -8 0 -15 -4 -15 -10 0 -5 4 -10 9 -10 6 0 13 5 16 10 11
18 25 10 25 -15 0 -26 14 -34 24 -12 4 6 4 -6 1 -27 -2 -22 -9 -42 -15 -46 -7
-4 -8 -33 -2 -91 5 -46 10 -93 10 -104 4 -63 16 -135 23 -135 4 0 18 20 30 45
13 25 27 41 31 37 10 -10 12 -73 4 -152 -3 -30 -7 -102 -10 -160 -2 -58 -2
-85 0 -60 3 25 9 54 14 65 5 11 11 40 13 65 3 25 12 72 22 105 26 92 28 114
16 129 -23 27 -32 83 -31 191 0 117 15 220 35 245 20 24 25 60 9 60 -7 0 -16
-11 -20 -25 -3 -14 -10 -25 -14 -25 -30 0 -13 134 21 166 11 11 27 26 36 36 9
9 22 14 29 11 23 -8 32 30 35 147 2 63 9 118 14 122 6 4 13 54 17 110 13 198
26 293 47 353 22 61 27 95 13 95 -9 0 -32 -72 -32 -100 0 -11 -4 -20 -10 -20
-5 0 -10 -10 -10 -22 0 -24 -16 -56 -23 -48 -2 3 -9 19 -15 35 -10 30 -10 30
-11 -12 -1 -24 4 -43 9 -43 6 0 10 -7 10 -16 0 -9 -6 -14 -13 -11 -8 3 -13
-11 -15 -47 -2 -28 -8 -56 -13 -62 -6 -7 -6 -21 0 -37 6 -16 6 -28 -2 -36 -9
-9 -14 -53 -20 -196 0 -16 1 -50 3 -75 4 -35 1 -45 -11 -48 -30 -6 -85 170
-81 260 1 31 -4 80 -12 110 -12 45 -12 55 0 68 11 13 11 23 -1 64 l-15 48 30
-6 c36 -7 37 -1 5 46 -30 45 -31 53 -4 72 17 11 20 22 16 43 -4 19 3 45 19 78
13 28 24 55 24 62 0 7 9 17 20 23 17 9 20 21 20 89 0 43 7 118 15 167 9 49 14
97 11 107 -2 9 -1 17 4 17 4 0 11 21 15 48 5 26 10 54 13 62 13 49 13 77 -2
90 -15 12 -16 9 -10 -29z"/>
<path d="M5377 11054 c-4 -4 -7 -16 -7 -26 0 -10 -7 -18 -15 -18 -15 0 -55
-34 -55 -46 0 -17 72 -74 93 -74 36 0 71 -48 101 -140 2 -8 5 1 5 20 2 82 -96
310 -122 284z"/>
<path d="M8974 11008 c-3 -5 -12 -7 -19 -4 -7 2 -28 1 -47 -4 -18 -5 -45 -12
-60 -15 -29 -6 -70 -44 -120 -112 -17 -24 -38 -45 -47 -48 -20 -6 -83 -105
-110 -170 -11 -27 -29 -69 -40 -92 -12 -23 -21 -48 -21 -56 0 -8 -7 -28 -15
-43 -8 -16 -15 -41 -15 -55 0 -14 -9 -52 -20 -84 -20 -58 -28 -151 -12 -141 5
3 14 31 21 63 7 32 24 81 37 110 13 28 24 59 24 67 0 24 41 126 50 126 5 0 16
16 25 35 9 19 23 39 31 46 8 6 14 19 14 28 0 21 48 98 86 138 16 17 34 38 39
47 8 15 17 16 53 8 37 -9 44 -8 53 9 12 23 37 24 66 4 15 -11 22 -12 25 -3 3
7 11 9 24 4 21 -9 69 -16 129 -19 22 -2 51 -10 65 -20 13 -9 33 -17 43 -17 9
0 20 -7 23 -15 4 -8 17 -15 29 -15 15 0 30 -11 44 -32 11 -18 36 -46 55 -61
20 -15 43 -42 52 -60 9 -18 28 -45 43 -62 33 -36 91 -127 91 -143 0 -6 9 -16
19 -22 11 -5 25 -27 31 -47 7 -21 18 -49 26 -63 22 -44 74 -178 74 -193 0 -8
7 -28 15 -43 8 -16 15 -37 15 -47 0 -10 6 -30 14 -45 26 -52 75 -275 83 -384
3 -40 11 -62 25 -75 20 -18 20 -18 15 32 -15 125 -23 174 -34 186 -6 8 -13 37
-15 64 -3 28 -17 95 -33 150 -15 55 -29 114 -32 130 -2 17 -8 39 -12 50 -33
81 -61 164 -61 182 0 12 -4 25 -10 28 -5 3 -10 13 -10 22 0 19 -51 126 -62
131 -5 2 -8 12 -8 23 0 10 -11 26 -25 35 -16 10 -25 26 -25 41 0 14 -17 52
-37 84 -21 33 -47 77 -58 97 -13 24 -28 38 -45 40 -13 2 -34 14 -46 25 -47 49
-93 87 -115 97 -13 5 -31 14 -39 19 -93 53 -232 92 -246 69z"/>
<path d="M5532 10513 c7 -27 7 -38 -1 -41 -6 -2 -11 -14 -11 -27 0 -12 -7 -25
-15 -29 -8 -3 -15 -12 -15 -21 0 -27 -18 -16 -37 23 -11 22 -25 37 -36 37 -10
0 -21 5 -25 12 -4 7 -33 15 -64 19 -48 6 -58 4 -76 -14 -17 -17 -18 -23 -8
-32 8 -5 21 -7 30 -4 12 4 29 -7 59 -39 62 -68 107 -124 107 -136 0 -5 20 -39
45 -75 25 -37 45 -69 45 -72 0 -3 14 -27 32 -52 63 -94 68 -101 68 -111 0 -6
9 -25 20 -43 l20 -33 0 31 c0 16 -4 34 -9 40 -6 5 -13 29 -17 54 l-7 44 26
-17 c21 -14 27 -14 27 -4 0 26 -23 82 -47 113 -30 40 -29 62 3 109 30 45 20
67 -20 45 -47 -25 -77 8 -55 60 10 21 21 30 36 30 30 0 29 18 -2 55 -20 25
-26 27 -34 15 -16 -24 -22 -6 -9 28 10 27 9 34 -7 51 -27 31 -35 26 -23 -16z"/>
<path d="M8651 10031 c-17 -28 -31 -57 -31 -64 0 -7 -4 -17 -9 -22 -12 -13
-61 -164 -61 -187 0 -26 19 -22 30 6 12 33 68 94 101 112 15 7 48 14 72 14 40
0 49 -5 85 -44 22 -24 47 -57 56 -74 33 -65 81 -42 73 34 -6 55 -77 201 -117
239 -27 25 -40 30 -99 33 l-68 4 -32 -51z"/>
<path d="M1627 9852 c-24 -25 -27 -36 -27 -100 0 -69 15 -101 22 -45 3 30 28
45 28 17 0 -10 -5 -32 -11 -49 -16 -42 -5 -85 21 -85 15 0 22 -9 27 -30 6 -31
29 -40 50 -19 16 16 57 -17 80 -63 17 -36 33 -49 33 -28 0 35 -24 111 -41 126
-14 12 -19 30 -19 65 0 26 -4 50 -9 54 -5 3 -17 30 -26 60 -14 50 -70 125 -93
125 -5 0 -20 -13 -35 -28z"/>
<path d="M9315 9850 c-68 -28 -108 -142 -69 -198 12 -18 25 -22 64 -22 27 0
71 5 98 11 67 16 119 5 154 -33 30 -32 62 -96 73 -148 5 -23 10 -29 18 -21 8
8 8 23 -1 56 -7 25 -12 58 -12 74 0 42 -36 121 -73 159 -43 45 -110 89 -169
113 -54 21 -55 21 -83 9z"/>
<path d="M1385 9810 c-3 -5 -19 -7 -34 -4 -28 6 -31 3 -64 -67 -19 -41 -38
-84 -42 -96 -3 -12 -28 -62 -56 -111 -88 -159 -140 -339 -160 -557 -5 -55 -11
-122 -15 -148 -4 -30 -2 -53 4 -59 13 -13 19 9 26 102 8 106 50 263 80 302 18
24 26 47 26 75 0 30 7 46 28 66 15 15 35 27 44 27 20 0 93 130 109 196 7 27
23 69 36 93 13 24 23 52 23 62 0 30 11 48 26 42 8 -3 14 -18 14 -34 0 -16 5
-29 10 -29 12 0 13 47 1 54 -5 3 -12 26 -15 51 -7 43 -26 59 -41 35z"/>
<path d="M8678 9473 c-53 -57 -73 -128 -43 -153 22 -18 35 -3 35 43 0 26 8 51
20 67 l19 25 -5 -80 c-5 -70 -3 -84 16 -113 28 -44 64 -42 68 5 2 24 -2 34
-18 43 -16 8 -19 15 -11 23 7 7 15 6 26 -3 13 -11 15 -5 15 50 0 55 -3 65 -29
91 -37 36 -60 37 -93 2z"/>
<path d="M9374 9420 c-26 -10 -61 -54 -80 -99 -18 -44 -18 -44 10 -37 l23 6
-2 -94 c-2 -94 -2 -95 27 -116 16 -12 39 -20 50 -18 21 3 22 8 20 93 -1 50 3
96 7 104 13 21 36 7 56 -35 15 -33 16 -44 6 -83 -6 -24 -9 -46 -6 -49 3 -3 5
0 5 7 0 9 5 9 21 1 25 -14 49 2 49 34 -1 34 -42 103 -93 156 -45 45 -55 72
-24 66 15 -3 66 -24 80 -33 20 -12 -29 60 -56 83 -29 25 -57 29 -93 14z"/>
<path d="M6167 9115 c-3 -11 -11 -48 -16 -83 -6 -35 -20 -79 -31 -98 -15 -23
-22 -50 -22 -84 1 -33 -5 -56 -18 -72 -10 -13 -20 -35 -22 -48 -2 -17 -8 -24
-20 -22 -14 2 -18 -4 -18 -25 0 -24 -19 -72 -20 -49 0 21 -42 -48 -63 -104
-13 -34 -28 -61 -33 -60 -5 0 -10 -15 -12 -35 -4 -42 9 -45 46 -10 33 31 78
33 87 5 3 -11 10 -20 15 -20 14 0 20 -30 10 -56 -7 -19 -16 -25 -29 -21 -24 6
-51 -10 -51 -31 0 -10 9 -35 20 -57 11 -22 20 -48 20 -60 0 -11 5 -27 10 -35
7 -12 13 -6 27 27 10 24 23 43 28 43 15 0 55 88 48 106 -3 8 0 26 7 38 9 18 9
28 0 46 -9 17 -9 24 3 33 8 7 17 20 21 30 5 15 2 17 -17 12 -12 -4 -29 -16
-37 -26 -12 -15 -18 -17 -28 -7 -29 29 -2 103 62 173 37 40 39 47 37 100 -1
17 5 77 14 134 14 94 14 106 0 113 -18 11 -19 31 -4 73 8 22 9 41 2 61 -9 26
-11 27 -16 9z"/>
<path d="M6358 9101 c-10 -10 -18 -23 -18 -30 0 -7 -13 -68 -30 -135 -16 -66
-30 -146 -32 -176 l-3 -55 55 -5 c56 -5 106 -29 117 -56 3 -8 12 -14 20 -14
10 0 13 11 12 45 -2 25 -6 45 -11 45 -14 0 -9 58 7 73 11 11 12 22 5 48 -6 19
-10 51 -10 71 0 23 -9 51 -25 74 -14 21 -24 43 -21 50 3 7 -1 15 -9 18 -7 2
-15 17 -17 32 -4 34 -17 38 -40 15z"/>
<path d="M1358 9002 c-8 -9 -29 -44 -47 -77 -19 -33 -39 -67 -47 -75 -24 -28
-94 -162 -94 -181 0 -27 12 -23 31 9 9 15 39 59 65 97 109 156 141 223 115
239 -4 3 -15 -2 -23 -12z"/>
<path d="M1746 8586 c-68 -75 -126 -311 -76 -311 21 0 58 72 65 125 13 94 15
100 40 100 20 0 25 7 31 35 7 41 -2 85 -17 85 -6 0 -25 -15 -43 -34z"/>
<path d="M6555 8448 c8 -35 26 -165 35 -253 8 -87 15 -123 36 -200 15 -55 21
-256 10 -320 -4 -22 -3 -51 2 -64 7 -20 12 -10 26 65 14 68 18 137 18 294 0
198 -8 260 -32 260 -8 0 -9 17 -5 54 8 63 -11 156 -32 156 -8 0 -16 7 -19 15
-4 8 -15 15 -25 15 -15 0 -18 -5 -14 -22z"/>
<path d="M6442 8074 c-6 -11 -17 -15 -32 -11 -28 7 -50 -1 -50 -19 0 -8 -6
-14 -14 -14 -16 0 -18 10 34 -155 50 -161 63 -238 89 -545 6 -69 13 -145 16
-170 15 -128 35 -409 36 -520 1 -69 4 -111 6 -95 15 133 24 147 41 68 8 -42
10 -32 11 79 1 77 5 129 12 133 13 9 43 -18 64 -58 l16 -32 -6 44 c-6 46 -18
77 -61 166 -24 50 -32 109 -15 119 14 9 40 -28 61 -85 l19 -54 1 44 c0 24 -7
86 -16 139 -15 87 -15 96 0 104 21 12 20 30 -4 78 -11 22 -20 52 -20 69 0 17
-6 31 -16 35 -24 9 -26 8 -19 -14 4 -11 2 -20 -4 -20 -6 0 -11 9 -11 19 0 11
-4 23 -10 26 -5 3 -10 18 -10 33 -1 15 -7 50 -14 77 -8 29 -10 59 -5 71 4 13
1 47 -8 85 -8 35 -17 89 -19 119 -14 201 -47 329 -72 284z"/>
<path d="M6146 7618 c-9 -12 -16 -17 -16 -10 0 19 -24 14 -38 -8 -7 -12 -17
-18 -22 -15 -6 4 -10 -14 -10 -42 0 -31 -3 -43 -9 -34 -15 24 -18 -83 -9 -279
9 -167 7 -280 -6 -350 -3 -14 -8 -45 -12 -70 -4 -25 -12 -51 -18 -59 -11 -14
-30 -62 -47 -120 -8 -23 -7 -37 0 -44 6 -6 11 -20 11 -32 0 -38 19 7 26 63 7
60 22 72 59 48 19 -13 25 -25 25 -53 0 -35 1 -36 17 -20 10 9 17 34 19 59 2
69 3 71 20 64 13 -5 15 -1 10 19 -3 13 -9 53 -13 87 -6 56 -5 62 9 50 9 -7 19
-24 22 -38 7 -27 26 -24 21 4 -23 119 -29 143 -36 148 -12 7 -11 71 1 79 5 3
17 -6 26 -20 9 -14 19 -23 23 -20 6 6 7 13 9 83 2 52 23 53 34 1 16 -73 30
-287 39 -604 5 -181 13 -377 18 -435 5 -58 9 -111 10 -117 1 -7 5 -13 10 -13
4 0 11 43 13 96 4 67 10 99 19 105 13 8 15 56 10 249 -5 160 1 301 14 357 12
51 13 83 6 151 -6 48 -13 121 -16 162 -4 41 -11 79 -16 84 -5 6 -9 18 -9 28 0
10 -4 18 -8 18 -4 0 -9 17 -10 37 -2 20 -8 43 -14 50 -7 9 -9 40 -5 87 5 70
-1 99 -19 96 -15 -2 -17 42 -2 51 10 7 10 14 -4 37 -10 17 -16 42 -13 61 4 33
-10 44 -18 14 -4 -17 -5 -17 -6 0 -2 27 -75 24 -95 -5z"/>
<path d="M8893 7591 c-13 -11 -23 -24 -23 -30 0 -13 36 -15 44 -2 9 14 53 10
53 -6 0 -7 -6 -12 -14 -9 -7 3 -17 -3 -22 -13 -8 -14 -5 -23 13 -40 17 -16 35
-21 80 -21 31 0 66 5 77 11 11 6 33 11 49 11 l29 1 -25 33 c-29 38 -71 67 -83
59 -16 -9 1 -45 21 -45 10 0 16 -4 13 -10 -13 -21 -43 -10 -55 20 -10 25 -18
30 -45 30 -18 0 -38 7 -45 15 -17 20 -40 18 -67 -4z"/>
<path d="M8965 7093 c-11 -3 -32 -14 -47 -24 -14 -11 -33 -16 -41 -13 -8 3
-18 1 -22 -5 -3 -6 1 -81 11 -166 13 -123 15 -164 5 -194 -13 -45 -7 -68 20
-76 10 -3 28 -19 39 -36 33 -45 54 -53 96 -33 40 19 36 22 74 -51 8 -16 22
-31 32 -33 31 -6 30 34 -3 113 l-32 77 12 99 c17 149 15 185 -10 203 -19 13
-20 17 -9 49 16 44 7 83 -22 91 -26 7 -73 6 -103 -1z m18 -140 c-9 -34 -9 -84
1 -108 5 -13 13 -16 36 -12 16 4 31 3 34 -2 3 -4 0 -37 -6 -72 -16 -98 -70
-128 -102 -55 -19 43 -36 129 -36 180 0 49 30 96 61 96 16 0 18 -4 12 -27z"/>
<path d="M7881 5969 c-4 -827 -15 -1341 -28 -1355 -9 -9 -32 -12 -74 -10 -52
3 -61 1 -71 -17 -8 -16 -9 -114 -2 -367 11 -425 10 -649 -5 -1079 -7 -183 -9
-336 -6 -340 13 -12 168 -16 180 -4 7 7 14 66 18 150 9 197 6 3160 -3 3208 -5
24 -8 -50 -9 -186z"/>
<path d="M7547 5401 c-4 -469 -11 -769 -17 -776 -5 -6 -24 -13 -42 -14 -102
-7 -105 -8 -113 -66 -6 -40 11 -647 21 -740 2 -22 0 -137 -6 -255 -29 -630
-32 -731 -19 -746 9 -11 32 -14 98 -12 l86 3 7 85 c8 107 7 2710 -1 3040 -5
194 -8 85 -14 -519z"/>
<path d="M6680 6033 c0 -26 -4 -83 -10 -127 -5 -45 -17 -175 -25 -291 -8 -115
-20 -266 -25 -335 -24 -288 -40 -516 -40 -574 -1 -79 -18 -111 -62 -112 -18
-1 -45 -2 -61 -3 -19 -1 -30 -8 -36 -24 -22 -57 -21 -647 1 -647 4 0 8 8 8 18
1 16 1 16 11 -1 6 -9 14 -15 20 -12 5 4 9 -4 9 -17 0 -16 3 -19 8 -10 15 23
33 -36 27 -86 -3 -26 -7 -67 -9 -92 -11 -124 -20 -179 -27 -174 -5 3 -9 0 -9
-5 0 -6 -3 -10 -7 -10 -22 4 -32 -3 -27 -16 7 -17 -11 -21 -22 -4 -5 8 -9 8
-14 -1 -5 -8 -18 -10 -36 -6 -22 6 -25 9 -13 17 9 6 10 9 2 9 -7 0 -20 -15
-29 -32 l-17 -33 -14 33 c-7 17 -17 32 -22 32 -22 0 -31 -146 -21 -315 6 -93
8 -218 4 -276 -6 -100 -5 -108 15 -128 18 -18 33 -21 116 -21 l94 0 5 33 c7
43 31 354 57 732 11 171 25 369 30 440 5 72 16 234 24 360 9 127 20 293 26
370 5 77 14 208 19 290 8 144 25 377 35 515 3 36 10 130 15 210 5 80 12 189
16 243 5 70 4 97 -4 97 -8 0 -12 -18 -12 -47z"/>
<path d="M2452 5718 c-9 -9 -11 -133 -10 -512 l2 -501 6 422 c3 295 8 425 16
433 20 20 57 6 82 -30 32 -48 46 -51 38 -9 -18 93 -41 160 -60 177 -28 26 -59
35 -74 20z"/>
<path d="M2494 5386 c-4 -10 -3 -54 1 -99 4 -45 6 -107 6 -138 -2 -41 4 -66
17 -88 19 -31 20 -32 26 -9 26 100 -20 412 -50 334z"/>
<path d="M7942 5187 c-8 -23 -12 -117 -12 -303 1 -237 2 -266 15 -243 8 14 18
61 24 105 5 43 20 126 32 184 12 58 24 130 26 160 3 30 9 59 14 65 5 5 9 18 9
28 0 18 -3 17 -25 -7 -29 -31 -35 -32 -35 -5 0 17 -21 49 -32 49 -2 0 -9 -15
-16 -33z"/>
<path d="M10267 5130 c-4 -30 -7 -94 -7 -142 l0 -88 -60 0 c-48 0 -61 -4 -70
-19 -5 -11 -10 -79 -10 -151 0 -120 -1 -131 -17 -126 -10 3 -42 6 -72 7 -42 2
-55 -1 -63 -15 -6 -11 -9 -228 -7 -594 2 -317 1 -601 -2 -629 -3 -30 -1 -53 4
-53 6 0 7 -38 3 -97 -5 -72 -3 -123 9 -192 38 -217 104 -301 220 -280 63 11
71 29 79 181 6 113 -6 411 -18 470 -2 10 5 28 16 40 18 21 19 32 14 113 -15
205 -23 412 -19 442 7 43 -4 83 -22 83 -19 0 -19 9 -1 29 17 20 37 219 34 334
-2 68 -5 87 -17 87 -8 0 -23 8 -33 17 -35 32 -40 6 -41 -214 -1 -114 0 -257 2
-318 4 -150 -10 -485 -20 -485 -4 0 -11 5 -14 11 -12 19 -5 1152 7 1166 6 7
32 13 59 13 43 0 51 3 59 24 11 29 12 357 1 406 -7 34 -7 34 -14 -20z"/>
<path d="M2798 5050 c-4 -8 -9 -55 -12 -105 -7 -133 -40 -338 -58 -361 -5 -8
-32 -10 -71 -8 -34 2 -136 5 -227 6 l-165 3 -3 -165 c-2 -91 0 -225 3 -297 7
-123 8 -132 25 -123 9 5 20 6 24 2 4 -3 4 2 0 13 -7 20 -7 20 14 1 12 -11 24
-17 26 -15 14 16 25 50 20 63 -3 9 -1 16 4 16 6 0 14 9 17 21 12 38 26 14 31
-56 8 -129 5 -590 -5 -625 -5 -19 -9 -27 -10 -17 -1 21 -34 23 -52 1 -11 -14
-14 -13 -23 3 -6 10 -11 23 -12 28 -1 6 -9 24 -18 40 -15 28 -16 28 -16 7 0
-13 -4 -21 -9 -17 -15 9 -20 -60 -25 -367 -4 -241 -2 -289 10 -299 18 -15 150
-7 167 10 9 9 13 166 15 599 2 342 8 594 13 604 5 10 21 18 34 18 69 0 157
105 204 245 52 156 91 367 91 491 0 30 5 74 11 97 11 45 9 212 -3 187z"/>
<path d="M8238 4923 c-30 -7 -52 -68 -73 -207 -8 -55 -19 -104 -24 -109 -5 -5
-17 -5 -29 2 -12 6 -23 7 -26 3 -3 -5 -18 -7 -34 -4 -54 7 -57 -19 -56 -413 1
-216 5 -371 12 -405 7 -30 12 -91 13 -135 1 -44 6 -101 12 -126 7 -32 6 -55
-1 -75 -10 -28 -10 -27 -11 19 -1 28 -6 47 -12 47 -8 0 -10 -20 -5 -67 4 -38
11 -120 16 -183 18 -230 96 -435 189 -497 46 -31 107 -30 176 3 96 45 97 47
92 274 -4 187 -23 390 -37 390 -4 0 -15 -9 -25 -20 -22 -24 -50 -27 -41 -4 3
9 6 18 6 20 0 2 7 4 15 4 8 0 19 9 26 21 8 16 17 20 39 15 25 -4 30 -1 39 26
17 49 13 65 -21 90 -30 21 -42 23 -132 21 -113 -3 -128 -11 -128 -67 0 -52
-15 -44 -22 12 -16 125 -18 184 -7 195 8 8 68 14 164 17 l152 5 6 70 c16 177
4 773 -17 874 -9 41 -17 14 -15 -52 l1 -64 -65 3 c-77 3 -74 8 -78 -136 -2
-92 -3 -95 -26 -98 -32 -5 -40 12 -42 83 -2 130 -30 143 -44 21 -11 -88 -20
-110 -35 -86 -14 21 -12 66 6 178 29 185 49 211 98 130 l26 -43 0 30 c0 54
-41 219 -59 236 -3 3 -13 4 -23 2z"/>
<path d="M6880 4907 c-29 -14 -77 -64 -85 -89 -11 -31 -25 -20 -26 20 0 20 -3
31 -6 24 -7 -19 7 -195 17 -212 7 -11 19 -3 52 32 24 26 55 50 71 53 34 9 74
-15 83 -50 11 -45 24 -26 24 35 0 68 -22 133 -58 173 -28 30 -35 31 -72 14z"/>
<path d="M9413 4897 c-17 -12 -46 -45 -63 -74 -30 -49 -32 -56 -25 -113 4 -33
11 -63 16 -66 5 -3 25 13 45 34 45 51 86 69 117 53 25 -13 67 -81 67 -107 0
-14 3 -15 12 -6 24 24 -28 231 -69 274 -32 33 -57 34 -100 5z"/>
<path d="M10588 4893 c-21 -24 -45 -87 -53 -143 -15 -103 -22 -140 -26 -144
-2 -2 -22 -1 -44 3 -56 9 -83 3 -97 -22 -15 -26 -18 -616 -4 -737 4 -41 8 -92
7 -112 0 -37 15 -61 24 -36 5 12 9 47 15 103 l1 20 9 -20 c12 -28 12 -89 0
-101 -32 -32 -46 -156 -44 -389 1 -151 39 -319 99 -440 45 -90 85 -125 143
-125 54 0 119 72 155 170 56 156 81 297 116 665 13 134 13 771 0 910 -6 55
-12 136 -15 180 -7 109 -24 121 -24 17 l0 -82 -58 0 c-32 0 -71 -6 -86 -12
-26 -12 -27 -16 -21 -58 23 -173 34 -612 21 -850 -8 -142 -39 -275 -67 -290
-27 -15 -31 13 -20 136 18 199 24 628 11 814 -6 96 -14 179 -17 184 -14 22
-23 -33 -33 -209 -11 -178 -9 -398 6 -755 7 -165 -4 -177 -31 -33 -15 80 -17
142 -12 525 4 354 8 450 22 528 10 52 22 101 27 108 19 23 46 14 53 -18 8 -39
25 -29 25 14 0 52 -30 174 -49 197 -16 20 -17 20 -33 2z"/>
<path d="M2969 4853 c-47 -51 -59 -80 -59 -138 0 -30 3 -55 6 -55 3 0 28 23
56 50 33 32 59 50 74 50 30 0 74 -27 74 -46 0 -8 5 -14 11 -14 6 0 8 8 5 18
-2 9 -8 33 -11 52 -4 19 -16 52 -26 73 -18 34 -23 37 -62 37 -34 0 -48 -6 -68
-27z"/>
<path d="M7200 4815 c-2 -33 -2 -92 -1 -131 3 -81 0 -84 -89 -84 -35 0 -50 -6
-75 -29 -45 -43 -72 -48 -87 -17 -22 49 -84 26 -137 -51 -27 -39 -35 -40 -63
-8 -11 13 -24 22 -28 20 -4 -3 -11 -46 -15 -97 -4 -51 -13 -142 -21 -203 -8
-60 -16 -137 -19 -170 l-4 -60 8 50 c16 90 48 189 90 275 40 82 95 159 106
148 3 -2 -11 -39 -30 -81 -19 -42 -35 -81 -35 -86 0 -6 -4 -19 -9 -29 -14 -26
-30 -90 -41 -162 -12 -82 -13 -260 -1 -260 5 0 7 -8 4 -19 -4 -16 0 -18 23
-13 24 4 26 3 22 -21 -3 -16 0 -28 8 -31 16 -6 19 -76 4 -76 -5 0 -10 -11 -10
-25 0 -30 -20 -33 -45 -5 -10 11 -22 20 -27 20 -4 0 -8 -9 -8 -20 0 -11 5 -20
10 -20 6 0 10 -9 10 -21 0 -11 -4 -17 -10 -14 -6 4 -10 -26 -11 -82 -1 -48 -3
-153 -5 -233 -2 -105 1 -166 13 -220 8 -41 19 -91 23 -110 20 -100 91 -200
141 -200 39 0 82 41 115 110 16 33 32 60 35 60 3 0 9 -25 12 -57 3 -31 12 -60
19 -65 7 -4 47 -7 88 -6 l75 3 3 805 c2 766 0 857 -27 1190 l-8 85 -3 -60z
m-141 -993 c1 -139 -3 -260 -8 -270 -5 -9 -14 -39 -20 -67 -20 -81 -60 -137
-74 -101 -3 8 1 59 8 113 16 110 20 263 6 263 -19 0 -30 -29 -40 -107 -6 -44
-7 -103 -3 -129 4 -27 5 -64 2 -83 l-5 -34 -17 37 c-31 63 -21 286 18 419 8
27 55 78 81 88 16 6 23 17 24 36 1 16 3 37 4 48 1 11 3 36 4 55 3 33 4 33 11
10 4 -14 8 -139 9 -278z m126 -107 c2 -55 1 -113 -3 -128 l-7 -28 -23 21 c-12
11 -22 28 -23 38 0 14 -2 14 -9 -3 l-9 -20 -1 20 c-1 11 -4 14 -7 8 -9 -23
-25 -14 -17 10 4 12 7 51 7 87 -1 36 1 56 4 45 7 -28 23 -43 23 -22 0 11 8 17
25 17 21 0 25 5 25 32 0 68 10 17 15 -77z"/>
<path d="M8850 4818 c-22 -62 -42 -143 -44 -178 l-1 -34 -78 1 c-66 1 -79 -2
-87 -17 -12 -23 -12 -256 0 -595 6 -173 4 -394 -6 -714 -10 -336 -10 -468 -2
-478 14 -18 173 -18 185 0 4 6 11 397 14 867 5 823 6 858 26 923 11 37 24 71
28 75 3 4 19 -7 35 -25 28 -31 28 -31 32 -8 5 26 -12 122 -33 178 -17 49 -52
52 -69 5z"/>
<path d="M9136 4783 c-4 -18 -7 -56 -6 -85 3 -96 4 -94 -35 -92 -20 1 -46 5
-59 8 -15 4 -28 0 -36 -9 -7 -8 -19 -15 -28 -15 -12 0 -14 -11 -8 -62 15 -152
27 -731 21 -1038 -6 -332 -9 -396 -21 -581 -7 -92 -6 -97 15 -108 12 -7 54
-11 99 -9 l77 3 5 90 c9 149 2 1857 -8 1895 l-9 35 -7 -32z"/>
<path d="M6305 4617 c-8 -18 -22 -23 -70 -29 -96 -12 -92 31 -43 -455 7 -62
15 -113 20 -113 4 0 8 -8 9 -17 0 -10 3 -13 5 -6 8 18 34 4 34 -17 0 -11 5
-22 10 -25 6 -3 10 1 10 9 0 9 9 25 19 35 18 18 19 17 26 -55 4 -41 11 -76 16
-80 5 -3 5 -14 -2 -26 -8 -15 -8 -23 0 -31 19 -19 33 12 26 57 -3 22 -10 166
-15 320 -9 245 -23 442 -33 452 -1 2 -7 -7 -12 -19z"/>
<path d="M9710 4610 c-8 -5 -29 -7 -46 -4 -26 5 -36 -1 -72 -36 -46 -47 -70
-49 -90 -7 -21 44 -53 32 -123 -46 l-46 -51 -23 27 c-13 15 -28 27 -33 27 -5
0 -6 -29 -3 -67 3 -38 7 -87 8 -110 2 -52 21 -56 44 -10 22 42 90 128 97 121
2 -3 -13 -41 -34 -84 -72 -145 -88 -241 -103 -600 -7 -173 -11 -344 -8 -379 2
-35 -1 -88 -8 -119 -9 -43 -9 -72 0 -136 18 -122 58 -265 86 -313 64 -110 147
-96 206 36 32 71 48 71 48 -1 0 -56 19 -68 106 -68 52 0 74 4 75 13 3 51 -3
1803 -7 1806 -9 9 -60 10 -74 1z m-95 -612 c4 -46 5 -164 3 -263 -4 -164 -6
-187 -31 -254 -30 -84 -59 -123 -79 -103 -10 10 -9 25 4 75 21 78 34 277 21
302 -10 17 -12 16 -24 -6 -10 -17 -15 -68 -16 -169 -2 -80 -6 -146 -10 -148
-4 -2 -15 25 -23 60 -13 49 -14 86 -9 171 11 157 30 212 89 268 45 42 49 50
51 97 4 79 16 62 24 -30z"/>
<path d="M5633 4549 c-36 -10 -36 -16 -16 -116 4 -21 6 -44 4 -52 -4 -23 8
-43 21 -34 21 12 38 12 39 0 1 -7 5 4 9 23 7 33 7 31 9 -17 1 -51 20 -76 22
-30 3 54 17 -43 18 -125 0 -48 6 -90 11 -93 11 -7 12 303 2 395 l-7 55 -40 2
c-22 1 -55 -3 -72 -8z"/>
<path d="M2114 4375 c-7 -18 0 -126 15 -230 6 -38 12 -216 15 -395 3 -192 11
-380 20 -460 9 -74 17 -155 19 -180 2 -25 4 232 4 570 0 338 -1 627 -4 641 -2
14 -17 36 -34 48 -26 19 -30 20 -35 6z"/>
<path d="M2722 4115 c-40 -98 -103 -184 -164 -225 -29 -19 -56 -39 -60 -45 -9
-12 -8 -152 1 -285 l6 -95 9 73 c6 57 11 72 25 72 32 0 62 -32 94 -98 29 -60
70 -124 104 -159 9 -10 12 -9 17 3 13 35 4 73 -31 130 -114 183 -129 242 -88
325 15 30 32 65 39 79 11 23 24 62 56 176 7 22 10 49 8 60 -3 16 -6 14 -16
-11z"/>
<path d="M3091 4083 c-42 -41 -69 -126 -75 -241 -4 -64 -3 -87 3 -67 32 108
60 162 99 193 31 24 33 28 30 80 -2 32 -8 57 -15 59 -6 3 -25 -8 -42 -24z"/>
<path d="M1606 4093 c-56 -56 -42 -299 20 -339 15 -10 24 -26 24 -41 0 -31 29
-28 41 5 6 17 5 22 -7 22 -12 0 -15 6 -10 23 16 53 23 152 16 212 -11 86 -54
147 -84 118z"/>
<path d="M452 3977 c-13 -15 -32 -182 -32 -280 0 -59 4 -80 20 -100 11 -14 20
-37 20 -51 0 -16 7 -29 18 -33 22 -9 82 -73 82 -89 0 -20 60 -46 76 -33 19 16
18 68 -1 76 -9 3 -22 21 -30 39 -9 23 -21 34 -34 34 -12 0 -21 5 -21 10 0 6 7
10 15 10 18 0 19 5 3 33 -7 12 -13 58 -14 102 -1 44 -6 103 -11 130 -7 41 -12
51 -30 53 -28 4 -30 32 -3 39 21 6 37 44 25 62 -9 15 -70 14 -83 -2z"/>
<path d="M5748 3855 c-4 -22 -8 -75 -8 -118 0 -100 -24 -273 -53 -372 -12 -43
-15 -47 -21 -27 -8 24 -25 30 -28 10 0 -7 -2 -17 -2 -23 -3 -25 -20 -35 -59
-35 -32 0 -38 -3 -27 -10 11 -8 8 -9 -12 -4 -19 4 -29 1 -36 -13 -10 -17 -11
-17 -26 2 -15 20 -15 20 -30 -2 -11 -14 -23 -19 -36 -16 -16 4 -20 0 -20 -21
0 -24 -13 -35 -23 -18 -2 4 -2 2 -1 -5 2 -7 -1 -15 -6 -18 -6 -4 -10 6 -10 21
0 15 -3 24 -7 20 -11 -11 -5 -150 7 -154 5 -2 10 -11 10 -21 0 -9 7 -26 15
-37 19 -25 21 -62 2 -42 -21 22 -47 67 -47 81 0 7 -6 19 -12 25 -7 7 -19 36
-26 65 -34 135 -31 127 -27 77 16 -190 68 -345 139 -424 29 -31 40 -36 78 -36
38 0 50 5 82 38 21 20 45 50 53 65 14 28 53 144 73 217 17 65 48 294 60 445
13 162 11 402 -2 330z"/>
<path d="M5109 3198 c-1 -81 -20 -143 -44 -144 -11 -1 -22 -2 -25 -3 -3 -2
-13 -4 -23 -6 -10 -2 -25 -9 -33 -16 -14 -12 -14 -14 1 -25 15 -11 14 -14 -9
-29 -44 -29 -63 -145 -27 -165 17 -8 159 -15 162 -7 5 14 10 447 5 447 -3 0
-6 -24 -7 -52z"/>
<path d="M2716 3158 c-55 -84 -105 -120 -179 -132 -27 -4 -37 -20 -37 -60 0
-59 15 -70 50 -35 19 19 39 29 59 29 21 0 31 5 31 15 0 8 7 15 15 15 8 0 15 5
15 11 0 11 6 10 63 -8 9 -3 17 0 17 7 0 6 7 19 16 27 11 12 14 27 10 52 -3 20
-6 57 -6 84 0 26 -4 47 -9 47 -6 0 -26 -24 -45 -52z"/>
<path d="M3136 3099 c-22 -50 -41 -70 -60 -63 -10 4 -16 1 -16 -9 0 -9 -9 -19
-20 -22 -11 -3 -20 -13 -20 -21 0 -8 -7 -14 -16 -14 -8 0 -13 -4 -10 -8 6 -11
-21 -52 -34 -52 -6 0 -22 18 -36 40 -15 22 -29 38 -32 36 -2 -3 8 -43 22 -90
39 -124 96 -166 156 -113 53 47 117 218 107 289 -8 58 -22 68 -41 27z"/>
<path d="M3221 3048 c-1 -53 -7 -91 -16 -105 -8 -12 -15 -45 -15 -73 0 -45 3
-52 26 -60 30 -12 114 -13 130 -2 7 4 11 57 11 147 -1 77 -2 115 -4 84 l-4
-56 -54 -1 c-67 -1 -77 22 -15 33 38 6 57 25 26 25 -8 0 -16 5 -18 11 -2 5
-12 11 -23 13 -12 2 -21 12 -23 27 -8 56 -19 34 -21 -43z"/>
<path d="M1707 3033 c-14 -23 -67 -192 -67 -214 0 -33 10 -43 25 -23 10 15 13
15 27 0 9 -9 26 -16 37 -16 11 0 23 -5 26 -10 4 -7 12 -7 25 0 20 11 70 -5 70
-22 0 -4 5 -8 10 -8 18 0 11 52 -13 94 -13 23 -30 67 -37 99 -8 35 -23 67 -38
82 -24 24 -56 33 -65 18z"/>
<path d="M5200 3018 c0 -14 42 -227 49 -252 5 -17 20 -65 32 -106 13 -41 29
-83 37 -92 17 -20 10 -46 -15 -54 -10 -3 -30 -12 -45 -20 -14 -8 -36 -14 -47
-14 -12 0 -21 -4 -21 -10 0 -5 7 -10 15 -10 8 0 26 -25 40 -55 15 -30 30 -57
35 -60 5 -3 19 -26 32 -51 30 -61 68 -91 125 -100 54 -8 102 12 123 52 8 13
19 24 27 24 7 0 13 11 13 25 0 14 4 25 9 25 5 0 19 20 31 45 19 40 24 44 49
39 18 -4 32 -1 36 6 6 9 13 6 26 -11 l19 -24 19 25 c17 21 21 22 36 10 12 -10
15 -23 10 -54 -5 -30 -3 -37 4 -26 6 8 11 47 11 87 l0 71 -82 -1 c-133 -3
-170 18 -144 78 44 100 81 229 75 260 -3 12 -20 -12 -49 -69 -27 -53 -62 -103
-87 -127 -37 -34 -49 -39 -91 -39 -43 0 -52 4 -89 43 -54 56 -143 251 -160
350 -3 15 -9 30 -14 33 -5 3 -9 4 -9 2z"/>
<path d="M4796 2967 c-5 -22 -22 -33 -96 -66 -40 -18 -100 -22 -100 -7 0 7
-13 28 -30 46 -31 35 -38 29 -18 -15 6 -14 17 -24 23 -21 6 2 12 -1 13 -7 7
-51 16 -77 28 -77 8 0 17 -6 20 -14 6 -17 56 -36 91 -36 13 0 40 12 59 26 34
26 34 26 34 110 0 81 -11 110 -24 61z"/>
<path d="M3510 2930 c-6 -12 -10 -42 -8 -68 l3 -47 83 -2 82 -1 0 35 c0 29 -3
33 -13 24 -8 -6 -17 -8 -20 -4 -12 12 -7 41 8 47 20 7 7 36 -17 36 -11 0 -29
-5 -40 -11 -14 -8 -23 -8 -31 0 -17 17 -35 13 -47 -9z"/>
<path d="M2817 2699 c1 -126 16 -202 44 -234 5 -5 9 -19 9 -32 0 -13 9 -40 20
-60 11 -21 20 -46 20 -55 0 -10 6 -18 14 -18 8 0 16 -5 18 -11 5 -14 68 -2 68
12 0 5 7 9 15 9 8 0 21 13 30 29 8 16 19 31 25 33 11 3 18 25 19 61 1 13 7 17
24 15 15 -2 29 -18 45 -49 l23 -47 32 16 c60 30 76 59 71 125 -2 26 1 58 6 71
12 32 -5 46 -62 53 -45 6 -78 27 -78 50 0 20 -28 15 -35 -6 -3 -11 -22 -34
-42 -51 -31 -28 -42 -31 -76 -27 -49 7 -79 41 -138 159 -24 48 -46 87 -49 87
-3 1 -4 -58 -3 -130z"/>
<path d="M4527 2670 c3 -11 9 -23 14 -26 5 -3 6 -16 3 -29 -5 -20 -1 -25 19
-30 52 -13 39 -76 -20 -97 -32 -12 -44 -40 -23 -53 6 -3 10 -14 10 -24 0 -10
24 -44 53 -74 48 -51 56 -56 101 -58 60 -4 80 17 90 90 5 40 2 59 -14 91 -19
37 -19 42 -4 65 8 13 13 29 9 35 -3 5 -35 10 -70 10 -40 0 -68 5 -77 14 -44
45 -78 87 -78 96 0 5 -4 10 -9 10 -5 0 -7 -9 -4 -20z"/>
<path d="M2198 2655 c-2 -2 8 -52 22 -110 22 -95 27 -105 45 -100 11 2 32 5
48 5 22 0 27 5 27 24 0 13 9 35 21 50 15 19 19 34 14 56 -8 37 -15 41 -75 44
-26 1 -59 10 -73 19 -14 9 -27 14 -29 12z"/>
<path d="M4900 2599 c1 -13 7 -41 14 -61 10 -27 10 -38 2 -38 -6 0 -19 -7 -30
-15 -16 -12 -17 -18 -8 -42 7 -15 12 -50 14 -76 2 -57 40 -107 80 -107 12 0
33 -3 45 -6 27 -8 50 33 69 125 13 59 12 66 -4 84 -13 14 -16 34 -15 78 1 32
-2 61 -8 65 -6 3 -44 8 -85 11 -73 5 -74 5 -74 -18z"/>
<path d="M3523 2603 c-35 -5 -39 -13 -22 -45 8 -15 13 -17 19 -8 10 17 40 5
40 -15 0 -12 -6 -15 -20 -10 -16 5 -20 2 -20 -19 0 -14 -4 -26 -10 -26 -5 0
-10 -12 -10 -26 0 -19 4 -25 15 -20 20 7 19 -4 -2 -19 -29 -21 -7 -33 41 -22
82 19 85 78 5 97 -29 6 -31 8 -14 15 31 14 65 47 65 65 0 13 -44 45 -53 38 -1
0 -17 -3 -34 -5z"/>
<path d="M3400 1923 c0 -10 9 -29 20 -43 26 -33 27 -101 2 -123 -22 -20 -43
-22 -39 -4 1 6 -6 11 -15 9 -11 -2 -18 3 -18 14 0 10 -3 14 -7 11 -3 -4 -12
-2 -20 5 -7 6 -16 8 -20 5 -11 -12 -22 -92 -16 -126 3 -18 1 -36 -4 -40 -6 -3
-14 -25 -18 -48 -6 -36 -4 -43 9 -43 9 0 16 4 16 9 0 5 31 42 69 82 79 86 101
124 101 176 0 36 -16 94 -33 121 -12 18 -27 15 -27 -5z"/>
<path d="M205 1503 c-33 -13 -70 -28 -83 -33 -26 -11 -50 -61 -58 -124 -5 -32
2 -72 25 -154 17 -61 28 -119 24 -129 -4 -10 -20 -35 -37 -56 -29 -37 -30 -38
-32 -180 -1 -100 2 -160 13 -202 16 -61 13 -156 -5 -178 -6 -7 -11 -58 -11
-114 -1 -57 -4 -109 -7 -117 -3 -8 2 -26 11 -40 12 -18 16 -41 13 -75 -2 -42
0 -51 15 -55 14 -3 17 -10 12 -25 -6 -19 -2 -21 33 -21 42 0 52 11 52 55 0 34
18 40 23 8 2 -16 5 -4 6 26 1 46 3 52 16 41 8 -7 15 -20 15 -29 0 -21 19 -41
39 -41 8 0 25 10 38 22 21 20 24 20 41 5 22 -21 52 -22 52 -3 0 7 6 19 13 25
11 8 18 6 32 -9 24 -27 49 -25 73 5 23 29 43 31 79 8 15 -10 37 -16 49 -15 15
2 28 -4 36 -17 18 -30 31 -26 52 14 22 40 35 43 61 15 25 -28 39 -25 69 15 29
37 56 44 76 20 18 -22 37 -18 56 10 21 32 38 32 52 1 6 -14 23 -33 38 -42 26
-18 27 -17 45 5 l19 23 29 -31 c36 -39 52 -39 74 -1 21 35 28 37 52 10 21 -24
51 -26 59 -5 7 20 23 19 53 -5 33 -26 45 -25 81 5 37 31 88 34 97 6 11 -36 31
-44 59 -26 14 10 35 15 46 12 11 -3 23 -1 26 4 13 21 37 6 55 -36 23 -51 36
-55 70 -22 13 13 36 27 51 31 40 9 87 89 88 150 1 12 9 38 19 60 17 36 19 37
24 15 4 -13 7 -52 7 -86 0 -51 4 -66 26 -92 18 -22 35 -31 55 -31 33 0 32 1
19 -34 -6 -16 -17 -26 -30 -26 -13 0 -20 -7 -20 -20 0 -18 7 -20 60 -20 45 0
62 4 66 15 8 19 53 40 122 55 63 15 86 3 80 -42 -5 -28 -4 -28 54 -28 44 0 58
4 58 14 0 17 27 46 42 46 6 0 8 -12 5 -30 -5 -22 -3 -30 7 -30 8 0 17 7 20 16
3 8 10 13 16 9 13 -8 51 12 71 38 11 13 27 20 50 19 44 -1 60 9 84 55 11 21
26 43 34 49 10 7 12 21 8 42 -7 35 0 65 14 56 5 -3 9 -16 9 -28 0 -13 8 -34
18 -47 10 -13 23 -37 30 -52 17 -40 39 -44 69 -13 l25 28 30 -29 29 -28 27 33
c15 18 30 32 34 32 3 0 16 -15 27 -33 19 -31 24 -33 74 -32 30 0 62 7 71 14
20 16 20 16 39 -31 8 -20 25 -41 36 -48 19 -9 24 -7 41 23 l20 34 53 -18 c64
-23 81 -23 97 -4 12 14 15 13 35 -5 13 -12 34 -20 51 -19 16 0 38 -2 49 -6 14
-4 27 0 40 15 l18 20 28 -26 28 -27 34 38 c23 25 37 34 42 26 4 -7 18 -10 34
-6 19 4 32 1 41 -10 16 -19 39 -19 46 0 7 16 44 21 44 6 0 -17 30 -40 45 -35
29 11 45 97 55 289 7 159 6 202 -6 265 -24 113 -57 166 -89 140 -9 -7 -18 -10
-22 -6 -3 3 -10 49 -13 101 -10 128 -45 181 -91 139 -36 -32 -97 -196 -86
-227 2 -6 8 2 12 18 16 70 47 129 69 133 18 4 19 -2 13 -74 -3 -44 -15 -104
-26 -134 -22 -59 -27 -100 -11 -100 22 0 27 -40 19 -157 -5 -80 -13 -132 -24
-153 -19 -37 -32 -30 -37 20 -4 44 -29 47 -39 5 -4 -16 -13 -45 -22 -64 l-15
-34 -12 23 c-19 35 -4 215 27 330 30 108 40 174 24 150 -8 -12 -15 -10 -39 13
-27 26 -32 27 -51 15 -12 -7 -24 -21 -27 -30 -8 -26 -22 -22 -54 12 -22 24
-34 29 -53 25 -30 -8 -34 1 -36 100 -3 76 -21 132 -47 142 -38 14 -65 -27
-110 -165 -15 -46 -33 -86 -40 -89 -20 -7 -92 78 -99 117 -13 73 -26 100 -48
100 -11 0 -31 -9 -43 -21 l-22 -21 -28 53 c-35 63 -67 89 -120 96 -33 4 -45 1
-72 -22 -18 -15 -44 -46 -58 -70 -23 -41 -24 -49 -20 -161 5 -149 -3 -178 -28
-96 -18 61 -61 116 -87 110 -10 -2 -15 15 -20 67 -4 47 -13 82 -29 108 -22 37
-22 39 -4 72 17 31 17 36 2 72 -9 21 -27 76 -39 123 -30 111 -32 113 -91 105
-44 -6 -49 -5 -57 17 l-10 23 0 -26 c-1 -21 -7 -28 -28 -32 -16 -3 -38 1 -51
9 -12 8 -22 10 -22 4 0 -20 -21 -9 -30 16 l-10 26 -35 -22 c-19 -12 -39 -19
-44 -16 -15 10 -24 -13 -16 -42 5 -20 8 -23 15 -12 5 8 11 12 14 10 2 -3 -4
-16 -15 -29 -18 -22 -21 -23 -38 -7 -10 9 -27 32 -37 51 -20 37 -41 45 -51 20
-3 -9 -23 -25 -44 -36 -32 -16 -39 -25 -39 -50 0 -38 15 -102 47 -202 18 -56
24 -92 20 -130 -6 -82 -27 -169 -47 -197 -21 -31 -43 -80 -61 -139 -12 -41
-14 -42 -20 -20 -4 13 -7 39 -8 57 -1 18 -19 69 -40 115 -38 79 -45 99 -72
212 -7 28 -22 67 -34 87 -21 37 -21 37 -47 20 -36 -24 -156 -121 -160 -130 -5
-11 -111 -98 -136 -111 -13 -7 -26 -10 -29 -7 -3 3 -15 -1 -27 -9 -35 -25 -37
-23 -62 74 -10 37 -11 58 -4 65 5 5 10 23 10 38 0 23 -4 28 -25 28 -14 0 -25
-4 -25 -9 0 -13 -32 -23 -39 -12 -3 5 -15 10 -25 12 -10 2 -23 11 -29 20 -14
23 46 97 82 101 20 2 27 9 29 32 4 28 3 29 -35 23 -29 -5 -48 -17 -79 -53 -23
-25 -44 -58 -47 -73 -8 -36 -65 -111 -86 -111 -9 0 -27 -7 -39 -16 -28 -20
-102 -128 -102 -150 0 -10 -5 -14 -14 -11 -7 3 -18 1 -23 -4 -6 -6 -24 0 -48
16 -33 23 -41 25 -66 15 -24 -10 -31 -9 -50 9 -30 27 -51 26 -87 -4 -17 -14
-34 -25 -40 -25 -17 0 -32 26 -41 71 -6 24 -15 64 -21 88 -6 25 -17 83 -24
130 -9 66 -16 85 -27 83 -8 -2 -38 2 -67 9 -38 9 -59 20 -73 40 -11 15 -28 31
-39 34 -11 4 -20 12 -20 20 0 7 -5 15 -10 17 -6 2 -18 23 -26 48 -9 25 -23 53
-31 63 -14 15 -15 25 -5 68 7 28 12 55 12 60 0 16 -53 8 -115 -18z m2406 -592
c-5 -14 -15 -52 -21 -83 -12 -62 -23 -71 -41 -35 -6 12 -18 30 -27 39 -14 16
-17 15 -55 -17 -22 -19 -44 -35 -47 -35 -4 0 -17 11 -30 25 l-24 25 35 30 c19
16 40 29 46 30 7 0 42 20 77 44 35 24 70 46 77 48 18 6 24 -35 10 -71z m-2391
-34 c5 -17 10 -52 10 -78 0 -38 -4 -49 -19 -54 -20 -6 -31 -43 -31 -108 0 -57
-38 -274 -57 -324 -9 -24 -22 -43 -30 -43 -12 0 -14 15 -8 88 3 48 10 120 16
160 15 123 12 172 -13 200 -20 21 -23 34 -23 106 0 88 10 112 48 119 34 5 95
-32 107 -66z m2853 40 c43 -37 56 -77 57 -168 0 -59 -22 -127 -43 -134 -7 -2
-25 -6 -40 -9 -15 -4 -31 -14 -34 -22 -8 -21 27 -92 66 -137 17 -19 31 -42 31
-51 0 -22 -42 -96 -55 -96 -5 0 -28 21 -51 47 l-41 47 -7 -47 c-8 -54 -16 -58
-34 -18 -10 23 -11 65 -3 198 5 92 11 177 12 188 1 11 2 59 3 106 1 79 3 88
26 108 35 29 69 25 113 -12z m-1230 9 c3 -8 -6 -106 -19 -218 -20 -157 -24
-228 -19 -313 4 -90 3 -114 -10 -130 -15 -20 -15 -20 -30 -1 -8 11 -15 26 -15
34 0 7 -5 23 -11 34 -11 20 -12 20 -34 -8 -13 -16 -26 -26 -30 -22 -26 25 -8
188 30 273 52 117 70 172 85 255 19 101 38 136 53 96z m393 -53 c-4 -38 -14
-129 -22 -203 -8 -74 -14 -192 -13 -261 2 -93 -1 -132 -11 -143 -17 -22 -34
-7 -49 44 -14 46 -22 50 -41 15 -8 -14 -18 -24 -24 -22 -16 5 -13 175 4 217 7
19 19 49 25 65 46 112 64 165 70 200 4 22 10 54 15 70 4 17 11 42 14 58 4 15
13 27 22 27 14 0 15 -10 10 -67z m439 57 c6 -10 -16 -234 -37 -368 -6 -43 -8
-113 -4 -175 5 -84 4 -106 -9 -122 -15 -20 -15 -20 -30 -1 -8 11 -15 29 -15
40 0 42 -16 50 -38 21 -75 -95 -66 111 13 300 40 98 65 181 65 221 0 29 28 94
41 94 4 0 11 -5 14 -10z m859 -85 c-1 -33 -13 -98 -28 -146 -31 -101 -31 -107
-8 -105 15 1 17 -10 18 -94 3 -152 5 -163 18 -100 7 30 15 62 18 70 3 8 13 49
22 91 18 80 29 99 57 99 33 0 40 -54 33 -243 -4 -98 -11 -180 -15 -183 -9 -5
-39 48 -39 71 0 24 -13 17 -38 -21 -19 -29 -26 -33 -38 -24 -8 7 -14 28 -14
47 0 40 -16 36 -25 -7 -10 -45 -31 -36 -45 18 -10 39 -14 44 -21 27 -39 -96
-49 -115 -60 -115 -9 0 -11 30 -6 123 6 128 33 254 87 417 44 134 48 142 68
138 14 -3 17 -14 16 -63z m-2281 -103 c-3 -110 -7 -133 -28 -173 -27 -53 -44
-162 -26 -173 14 -9 14 -81 0 -107 -13 -25 -27 -16 -47 30 -10 24 -17 75 -19
151 -8 255 -9 240 14 258 12 10 31 43 43 75 24 63 49 96 60 77 4 -6 5 -68 3
-138z m-485 -50 c2 -11 -6 -39 -18 -63 -16 -31 -20 -50 -15 -73 18 -76 11
-149 -20 -211 -30 -60 -52 -72 -47 -25 4 43 3 92 -4 178 -8 101 -4 116 42 175
39 50 57 55 62 19z m1717 8 c4 -13 -3 -39 -20 -71 -26 -50 -26 -51 -10 -100
11 -33 15 -63 10 -87 -7 -44 -62 -162 -74 -162 -14 0 -19 35 -9 54 6 10 7 39
4 64 -23 168 -19 199 37 280 33 46 52 53 62 22z m-2183 -21 c29 -38 34 -130
13 -209 -10 -36 -20 -84 -23 -107 -4 -43 -32 -80 -51 -68 -16 9 -13 68 6 141
16 60 16 66 0 111 -18 49 -21 101 -11 141 9 30 40 26 66 -9z m2058 -37 c0 -21
-10 -58 -21 -82 -37 -76 -40 -96 -18 -124 22 -28 24 -53 8 -107 -28 -93 -99
-33 -99 84 0 77 43 240 71 268 30 30 59 10 59 -39z m418 46 c21 -21 14 -93
-13 -144 -28 -53 -32 -96 -10 -114 28 -23 12 -131 -21 -144 -23 -9 -53 11 -61
42 -13 43 -7 172 10 232 36 129 61 162 95 128z m-2322 -34 c12 -29 14 -64 9
-183 -7 -160 -11 -191 -25 -191 -5 0 -14 18 -20 40 -6 22 -15 40 -19 40 -5 0
-18 -16 -30 -36 -12 -19 -26 -32 -31 -29 -13 8 -13 138 -1 150 6 6 13 26 16
45 23 132 49 200 77 200 5 0 16 -16 24 -36z m98 -12 c9 -38 12 -41 40 -39 l31
2 3 -134 c2 -109 0 -138 -13 -158 -24 -37 -39 -23 -51 48 -11 63 -11 63 -23
34 -37 -98 -46 -73 -43 110 3 154 10 190 36 182 6 -2 15 -22 20 -45z m935 31
c10 -17 12 -17 26 1 21 27 43 13 47 -31 3 -35 5 -38 33 -36 16 1 33 -3 37 -10
10 -15 9 -177 -1 -240 -4 -26 -13 -53 -20 -60 -18 -18 -41 18 -41 64 0 50 -16
58 -30 14 -11 -35 -34 -46 -43 -22 -3 6 -3 60 0 118 6 108 0 150 -17 133 -5
-5 -11 -20 -13 -34 -3 -14 -10 -38 -16 -53 -17 -44 -13 -81 9 -95 24 -15 25
-33 4 -88 -27 -70 -65 -67 -89 7 -15 45 -16 61 -5 132 14 86 42 180 61 203 16
19 46 17 58 -3z m447 -9 c25 -37 20 -148 -11 -249 -30 -100 -55 -136 -79 -116
-19 16 -20 50 -5 186 14 136 34 205 59 205 11 0 27 -11 36 -26z m1401 6 c33
-52 19 -194 -31 -319 -25 -63 -58 -81 -70 -39 -9 35 -7 196 3 202 4 3 11 34
13 69 3 35 11 73 17 85 15 27 52 29 68 2z m-2469 -27 c3 -30 4 -31 50 -29 26
2 53 -2 60 -7 15 -12 16 -156 1 -211 -11 -40 -38 -85 -51 -86 -3 0 -9 18 -13
40 -7 43 -20 52 -28 20 -7 -26 -34 -26 -42 1 -6 17 -9 19 -16 8 -5 -8 -9 -26
-9 -40 0 -15 -9 -37 -19 -50 l-19 -24 -7 28 c-7 26 1 114 25 286 13 91 61 136
68 64z m3244 -19 c19 -45 20 -53 8 -216 -7 -93 -16 -171 -21 -173 -10 -7 -21
11 -29 49 -7 38 -20 38 -40 0 -9 -15 -21 -29 -28 -32 -30 -10 -27 130 7 228
10 30 21 77 25 103 6 42 33 87 52 87 3 0 14 -21 26 -46z m-321 9 c12 -31 15
-129 5 -161 -4 -11 -14 -22 -23 -24 -9 -2 -21 -22 -28 -45 -12 -40 -11 -42 9
-45 14 -2 22 -11 24 -28 2 -26 -35 -101 -54 -107 -20 -7 -44 74 -44 147 0 115
52 290 86 290 8 0 19 -12 25 -27z m-558 -45 c-1 -49 -31 -277 -38 -288 -19
-31 -41 9 -56 104 -13 75 2 140 43 197 34 47 52 42 51 -13z m-2129 20 c7 -28
-23 -299 -35 -313 -6 -5 -13 -5 -20 2 -12 12 -39 134 -39 175 0 42 58 158 80
158 4 0 10 -10 14 -22z m243 6 c6 -15 -24 -284 -34 -311 -18 -46 -54 53 -55
147 0 96 67 220 89 164z"/>
<path d="M3175 1513 c-22 -8 -53 -17 -70 -19 -16 -3 -41 -7 -55 -10 -14 -4
-42 -8 -63 -10 -47 -4 -57 -10 -57 -33 0 -21 40 -143 51 -155 10 -11 87 48
192 147 100 95 100 118 2 80z"/>
</g>
</svg>
